<svg xmlns="http://www.w3.org/2000/svg" viewBox="0 0 600 52860">
  <defs>
    <style type="text/css">
      @import url('https://rsms.me/inter/inter.css');
      text {
        font-family: Inter, -apple-system, BlinkMacSystemFont, "Segoe UI", Roboto, Helvetica, Arial, sans-serif, "Apple Color Emoji", "Segoe UI Emoji", "Segoe UI Symbol";
        font-size: 40px;
        font-weight: 900;
      }
    </style>
  </defs>
  <rect fill="#202124" x="0" y="0" width="600" height="52860"/>
  <text x="40" y="90" fill="#e67e30">abricot</text><text x="40" y="160" fill="#7fdd4c">absinthe</text><text x="40" y="230" fill="#88421d">acajou</text><text x="40" y="300" fill="#6c6c6c">acier</text><text x="40" y="370" fill="#79f8f8">aigue-marine</text><text x="40" y="440" fill="#acd8e2">aigue-marine bleue</text><text x="40" y="510" fill="#000000">aile de corbeau</text><text x="40" y="580" fill="#c5e8ed">air marin</text><text x="40" y="650" fill="#fefefe">albâtre</text><text x="40" y="720" fill="#a76726">alezan</text><text x="40" y="790" fill="#82c46c">amande</text><text x="40" y="860" fill="#91283b">amarante</text><text x="40" y="930" fill="#f0c300">ambre jaune</text><text x="40" y="1000" fill="#ad390e">ambre rouge</text><text x="40" y="1070" fill="#884da7">améthyste</text><text x="40" y="1140" fill="#a3638b">améthyste violette</text><text x="40" y="1210" fill="#303030">anthracite</text><text x="40" y="1280" fill="#ad4f09">aquilain</text><text x="40" y="1350" fill="#5a5e6b">ardoise</text><text x="40" y="1420" fill="#455c71">ardoise grise</text><text x="40" y="1490" fill="#cecece">argent</text><text x="40" y="1560" fill="#efefef">argile</text><text x="40" y="1630" fill="#5ba05b">asperge</text><text x="40" y="1700" fill="#eeaa9b">aube rose</text><text x="40" y="1770" fill="#370028">aubergine</text><text x="40" y="1840" fill="#9d3e0c">auburn</text><text x="40" y="1910" fill="#ffcb60">aurore</text><text x="40" y="1980" fill="#568203">avocat</text><text x="40" y="2050" fill="#1e7fcb">azur</text><text x="40" y="2120" fill="#a9eafe">azurin</text><text x="40" y="2190" fill="#7e6b42">badiane</text><text x="40" y="2260" fill="#e36d6d">baies roses</text><text x="40" y="2330" fill="#ae642d">baillet</text><text x="40" y="2400" fill="#d1b606">banane</text><text x="40" y="2470" fill="#5ba3b3">banquise bleue</text><text x="40" y="2540" fill="#8b6c42">basané</text><text x="40" y="2610" fill="#c8ad7f">beige</text><text x="40" y="2680" fill="#ffe2cf">beige cachemire</text><text x="40" y="2750" fill="#e3d8cc">beige flanelle</text><text x="40" y="2820" fill="#c48e70">beige foncé</text><text x="40" y="2890" fill="#f7cbbf">beige rosé</text><text x="40" y="2960" fill="#afa77b">beigeasse</text><text x="40" y="3030" fill="#f0e36b">beurre</text><text x="40" y="3100" fill="#fff48d">beurre frais</text><text x="40" y="3170" fill="#f1e2be">bis</text><text x="40" y="3240" fill="#ffe4c4">bisque</text><text x="40" y="3310" fill="#856d4d">bistre</text><text x="40" y="3380" fill="#4e3d28">bitume</text><text x="40" y="3450" fill="#ffffff">blanc</text><text x="40" y="3520" fill="#ffffff">blanc Lumière</text><text x="40" y="3590" fill="#fefee2">blanc cassé</text><text x="40" y="3660" fill="#fdf1b8">blanc crème</text><text x="40" y="3730" fill="#faf6f0">blanc d'ail</text><text x="40" y="3800" fill="#fefdf0">blanc de Meudon</text><text x="40" y="3870" fill="#fefdf0">blanc de Troyes</text><text x="40" y="3940" fill="#fefefe">blanc de céruse</text><text x="40" y="4010" fill="#fbfcfa">blanc de lait</text><text x="40" y="4080" fill="#fefefe">blanc de plomb</text><text x="40" y="4150" fill="#f6fefe">blanc de zinc</text><text x="40" y="4220" fill="#fefdf0">blanc d’Espagne</text><text x="40" y="4290" fill="#fefefe">blanc d’argent</text><text x="40" y="4360" fill="#f4fefe">blanc lunaire</text><text x="40" y="4430" fill="#fefefe">blanc-bleu</text><text x="40" y="4500" fill="#5b3c11">blet</text><text x="40" y="4570" fill="#0000ff">bleu</text><text x="40" y="4640" fill="#2696b6">bleu Caraïbes</text><text x="40" y="4710" fill="#318ce7">bleu France</text><text x="40" y="4780" fill="#21177d">bleu Klein</text><text x="40" y="4850" fill="#6050dc">bleu Majorelle</text><text x="40" y="4920" fill="#4f93a7">bleu Nattier</text><text x="40" y="4990" fill="#06e3e6">bleu Navajo</text><text x="40" y="5060" fill="#3a8eba">bleu acier</text><text x="40" y="5130" fill="#686f8c">bleu ardoise</text><text x="40" y="5200" fill="#1e7fcb">bleu azur</text><text x="40" y="5270" fill="#5472ae">bleu barbeau</text><text x="40" y="5340" fill="#5472ae">bleu bleuet</text><text x="40" y="5410" fill="#048b9a">bleu canard</text><text x="40" y="5480" fill="#5c7294">bleu chardon</text><text x="40" y="5550" fill="#8ea2c6">bleu charrette</text><text x="40" y="5620" fill="#8ea2c6">bleu charron</text><text x="40" y="5690" fill="#77b5fe">bleu ciel</text><text x="40" y="5760" fill="#dbe2e9">bleu clair de lune</text><text x="40" y="5830" fill="#22427c">bleu cobalt</text><text x="40" y="5900" fill="#26c4ec">bleu céleste</text><text x="40" y="5970" fill="#357ab7">bleu cérule</text><text x="40" y="6040" fill="#357ab7">bleu céruléen</text><text x="40" y="6110" fill="#b8d2e6">bleu d'azur</text><text x="40" y="6180" fill="#24445c">bleu de Berlin</text><text x="40" y="6250" fill="#555b7b">bleu de Chine</text><text x="40" y="6320" fill="#5a8fb8">bleu de Delft</text><text x="40" y="6390" fill="#318ce7">bleu de France</text><text x="40" y="6460" fill="#488e9a">bleu de Perse</text><text x="40" y="6530" fill="#24445c">bleu de Prusse</text><text x="40" y="6600" fill="#11416d">bleu de Sèvres</text><text x="40" y="6670" fill="#22427c">bleu de cobalt</text><text x="40" y="6740" fill="#033660">bleu de minuit</text><text x="40" y="6810" fill="#00cccb">bleu des mers du sud</text><text x="40" y="6880" fill="#bbc3d9">bleu doux</text><text x="40" y="6950" fill="#dff2ff">bleu dragée</text><text x="40" y="7020" fill="#24445c">bleu d’Anvers</text><text x="40" y="7090" fill="#3d95a5">bleu fjord</text><text x="40" y="7160" fill="#bbd2e1">bleu fumée</text><text x="40" y="7230" fill="#a1c2d7">bleu gauloise</text><text x="40" y="7300" fill="#4781a5">bleu gentiane</text><text x="40" y="7370" fill="#80d0d0">bleu givré</text><text x="40" y="7440" fill="#d3d7ed">bleu glacier</text><text x="40" y="7510" fill="#6a859e">bleu gris</text><text x="40" y="7580" fill="#56739a">bleu guède</text><text x="40" y="7650" fill="#748eb6">bleu horizon</text><text x="40" y="7720" fill="#b7bfdd">bleu hortensia</text><text x="40" y="7790" fill="#24445c">bleu hussard</text><text x="40" y="7860" fill="#cddfed">bleu igloo</text><text x="40" y="7930" fill="#253b73">bleu indigo</text><text x="40" y="8000" fill="#9683ec">bleu lavande</text><text x="40" y="8070" fill="#8f9cc1">bleu layette</text><text x="40" y="8140" fill="#03224c">bleu marine</text><text x="40" y="8210" fill="#24445c">bleu minéral</text><text x="40" y="8280" fill="#bddded">bleu myosotis</text><text x="40" y="8350" fill="#213063">bleu myrtille</text><text x="40" y="8420" fill="#7b8eab">bleu méditerranée</text><text x="40" y="8490" fill="#0f056b">bleu nuit</text><text x="40" y="8560" fill="#396987">bleu océan</text><text x="40" y="8630" fill="#999fb7">bleu orage</text><text x="40" y="8700" fill="#1b019b">bleu outremer</text><text x="40" y="8770" fill="#067790">bleu paon</text><text x="40" y="8840" fill="#93b4ce">bleu pastel</text><text x="40" y="8910" fill="#660ff0">bleu persan</text><text x="40" y="8980" fill="#14aad0">bleu piscine</text><text x="40" y="9050" fill="#1c5066">bleu polaire foncé</text><text x="40" y="9120" fill="#c7d1db">bleu porcelaine clair</text><text x="40" y="9190" fill="#1d4851">bleu pétrole</text><text x="40" y="9260" fill="#384c5e">bleu pétrole foncé</text><text x="40" y="9330" fill="#318ce7">bleu roi</text><text x="40" y="9400" fill="#318ce7">bleu roy</text><text x="40" y="9470" fill="#0131b4">bleu saphir</text><text x="40" y="9540" fill="#008e8e">bleu sarcelle</text><text x="40" y="9610" fill="#1b2853">bleu sureau</text><text x="40" y="9680" fill="#94a8c6">bleu tendre</text><text x="40" y="9750" fill="#6b9ebf">bleu touareg</text><text x="40" y="9820" fill="#425b8a">bleu turquin</text><text x="40" y="9890" fill="#25fde9">bleu turquoise</text><text x="40" y="9960" fill="#99cfd9">bleu vert</text><text x="40" y="10030" fill="#2c75ff">bleu électrique</text><text x="40" y="10100" fill="#707da2">bleuet</text><text x="40" y="10170" fill="#e2bc74">blond</text><text x="40" y="10240" fill="#e7a854">blond vénitien</text><text x="40" y="10310" fill="#f18787">blush rose</text><text x="40" y="10380" fill="#e8d630">blé</text><text x="40" y="10450" fill="#cc847c">bois de rose</text><text x="40" y="10520" fill="#bc6c64">bois de rose foncé</text><text x="40" y="10590" fill="#785762">bois de violette</text><text x="40" y="10660" fill="#594937">bois foncé</text><text x="40" y="10730" fill="#6d071a">bordeaux</text><text x="40" y="10800" fill="#9b1359">bougainvillée</text><text x="40" y="10870" fill="#e7d6c1">bouleau</text><text x="40" y="10940" fill="#d8e498">bourgeon vert</text><text x="40" y="11010" fill="#6b0d0d">bourgogne</text><text x="40" y="11080" fill="#ffc0cd">bouton de rose</text><text x="40" y="11150" fill="#fcdc12">bouton d’or</text><text x="40" y="11220" fill="#842e1b">brique</text><text x="40" y="11290" fill="#614e1a">bronze</text><text x="40" y="11360" fill="#3f2204">brou de noix</text><text x="40" y="11430" fill="#e5fcfd">brume de mer bleue</text><text x="40" y="11500" fill="#d7cbd3">brume de rose</text><text x="40" y="11570" fill="#5b3c11">brun</text><text x="40" y="11640" fill="#82340a">brun Palissandre</text><text x="40" y="11710" fill="#796047">brun castor</text><text x="40" y="11780" fill="#985e33">brun cigare</text><text x="40" y="11850" fill="#675541">brun racine</text><text x="40" y="11920" fill="#964a3f">brun rosé</text><text x="40" y="11990" fill="#984436">brun rouge</text><text x="40" y="12060" fill="#a64510">brun tomette</text><text x="40" y="12130" fill="#b7737f">bruyère</text><text x="40" y="12200" fill="#6b5731">bureau</text><text x="40" y="12270" fill="#cdcd0d">caca d’oie</text><text x="40" y="12340" fill="#614b3a">cacao</text><text x="40" y="12410" fill="#2f1b0c">cachou</text><text x="40" y="12480" fill="#462e01">café</text><text x="40" y="12550" fill="#785e2f">café au lait</text><text x="40" y="12620" fill="#e4bb8e">camel</text><text x="40" y="12690" fill="#f6dc98">camomille</text><text x="40" y="12760" fill="#60678c">campanule bleue</text><text x="40" y="12830" fill="#7e5835">cannelle</text><text x="40" y="12900" fill="#ff5e4d">capucine</text><text x="40" y="12970" fill="#7e3300">caramel</text><text x="40" y="13040" fill="#960018">carmin</text><text x="40" y="13110" fill="#411f20">carmélite</text><text x="40" y="13180" fill="#fec3ac">carnation</text><text x="40" y="13250" fill="#fec3ac">carné</text><text x="40" y="13320" fill="#f4661b">carotte</text><text x="40" y="13390" fill="#bce3e6">cascade bleue</text><text x="40" y="13460" fill="#3a020d">cassis</text><text x="40" y="13530" fill="#7880a4">cendre bleue</text><text x="40" y="13600" fill="#b79da7">cendre de rose</text><text x="40" y="13670" fill="#abb197">cendre verte</text><text x="40" y="13740" fill="#bb0b0b">cerise</text><text x="40" y="13810" fill="#fec3ac">chair</text><text x="40" y="13880" fill="#d0c07a">chamois</text><text x="40" y="13950" fill="#fbf2b7">champagne</text><text x="40" y="14020" fill="#ddd8cb">chanvre</text><text x="40" y="14090" fill="#000010">charbonneux</text><text x="40" y="14160" fill="#85530f">chaudron</text><text x="40" y="14230" fill="#fefefe">chenu</text><text x="40" y="14300" fill="#5a3a22">chocolat</text><text x="40" y="14370" fill="#94631a">châtaigier</text><text x="40" y="14440" fill="#806d5a">châtaigne</text><text x="40" y="14510" fill="#8b6c42">châtain</text><text x="40" y="14580" fill="#b78b61">chêne</text><text x="40" y="14650" fill="#c69f7b">chêne clair</text><text x="40" y="14720" fill="#c7cad7">ciel orageux</text><text x="40" y="14790" fill="#db1702">cinabre</text><text x="40" y="14860" fill="#f7ff3c">citron</text><text x="40" y="14930" fill="#9ecf34">citron vert</text><text x="40" y="15000" fill="#df6d14">citrouille</text><text x="40" y="15070" fill="#59c7b4">clair de Véronèse</text><text x="40" y="15140" fill="#b9b276">clarissimo</text><text x="40" y="15210" fill="#845a3b">claro</text><text x="40" y="15280" fill="#ba9b61">claro claro</text><text x="40" y="15350" fill="#361f0e">clou de girofle</text><text x="40" y="15420" fill="#ffbf57">clémentine</text><text x="40" y="15490" fill="#6a455d">colombin</text><text x="40" y="15560" fill="#703516">colorado</text><text x="40" y="15630" fill="#6a4b21">colorado claro</text><text x="40" y="15700" fill="#c60800">coquelicot</text><text x="40" y="15770" fill="#f2e3ce">coquillage</text><text x="40" y="15840" fill="#dde3e3">coquille d'huitre</text><text x="40" y="15910" fill="#ffeee3">coquille d'oeuf</text><text x="40" y="15980" fill="#fde9e0">coquille d’œuf</text><text x="40" y="16050" fill="#e73e01">corail</text><text x="40" y="16120" fill="#d1baa1">cordage beige</text><text x="40" y="16190" fill="#e7e2d3">cotonnade</text><text x="40" y="16260" fill="#dc143c">cramoisi</text><text x="40" y="16330" fill="#f7976f">crevette</text><text x="40" y="16400" fill="#fdf1b8">crème</text><text x="40" y="16470" fill="#863022">cuir rouge</text><text x="40" y="16540" fill="#fee7f0">cuisse de nymphe</text><text x="40" y="16610" fill="#b36700">cuivre</text><text x="40" y="16680" fill="#68251a">cuivre rouge</text><text x="40" y="16750" fill="#2bfafa">cyan</text><text x="40" y="16820" fill="#f4aed5">cyclamen</text><text x="40" y="16890" fill="#26c4ec">cæruléum</text><text x="40" y="16960" fill="#357ab7">céruléen</text><text x="40" y="17030" fill="#881531">dahlia noir</text><text x="40" y="17100" fill="#fc90a2">dahlia rose</text><text x="40" y="17170" fill="#b69b7e">daim</text><text x="40" y="17240" fill="#1560bd">denim</text><text x="40" y="17310" fill="#ba9b61">double claro</text><text x="40" y="17380" fill="#f8e4c8">dune</text><text x="40" y="17450" fill="#ffffd4">d’ivoire</text><text x="40" y="17520" fill="#dbecf5">eau bleutée</text><text x="40" y="17590" fill="#1e1108">ebène</text><text x="40" y="17660" fill="#49b3a1">eclat d'émeraude</text><text x="40" y="17730" fill="#7f6a55">ecorce</text><text x="40" y="17800" fill="#f0eada">ecru</text><text x="40" y="17870" fill="#b35f2b">ecureuil</text><text x="40" y="17940" fill="#f9f7f1">edelweiss</text><text x="40" y="18010" fill="#7eb1c8">embruns bleutés</text><text x="40" y="18080" fill="#378477">emeraude</text><text x="40" y="18150" fill="#2c597c">encre bleue</text><text x="40" y="18220" fill="#f2af68">epices</text><text x="40" y="18290" fill="#848484">etain</text><text x="40" y="18360" fill="#ebeae7">falaise</text><text x="40" y="18430" fill="#f27688">fard à joue rose</text><text x="40" y="18500" fill="#ad4f09">fauve</text><text x="40" y="18570" fill="#bc8d0e">fennec</text><text x="40" y="18640" fill="#848484">fer</text><text x="40" y="18710" fill="#6b5743">fer forgé</text><text x="40" y="18780" fill="#eb6307">feu</text><text x="40" y="18850" fill="#ff4901">feu vif</text><text x="40" y="18920" fill="#99512b">feuille-morte</text><text x="40" y="18990" fill="#b1aa97">feutre gris</text><text x="40" y="19060" fill="#dcc4aa">ficelle</text><text x="40" y="19130" fill="#ffadbc">flamant rose</text><text x="40" y="19200" fill="#e6e697">flave</text><text x="40" y="19270" fill="#b0c0da">fleur de lin bleue</text><text x="40" y="19340" fill="#ffff6b">fleur de soufre</text><text x="40" y="19410" fill="#ba91aa">fleur de thym parme</text><text x="40" y="19480" fill="#fbd5bb">fond de teint</text><text x="40" y="19550" fill="#bf3030">fraise</text><text x="40" y="19620" fill="#b32f48">fraise des bois</text><text x="40" y="19690" fill="#a42424">fraise écrasée</text><text x="40" y="19760" fill="#c72c48">framboise</text><text x="40" y="19830" fill="#bc4365">framboise glacée</text><text x="40" y="19900" fill="#970b23">fruits rouges</text><text x="40" y="19970" fill="#fd3f92">fuchsia</text><text x="40" y="20040" fill="#877d73">fumée grise</text><text x="40" y="20110" fill="#f3478b">fuschia</text><text x="40" y="20180" fill="#636458">galet</text><text x="40" y="20250" fill="#ee1010">garance</text><text x="40" y="20320" fill="#d2bca6">gingembre</text><text x="40" y="20390" fill="#ba8b7c">glaise</text><text x="40" y="20460" fill="#649b88">glauque</text><text x="40" y="20530" fill="#c9a0dc">glycine</text><text x="40" y="20600" fill="#ada7c7">glycine violette</text><text x="40" y="20670" fill="#3b768f">grand bleu</text><text x="40" y="20740" fill="#ababab">granit gris</text><text x="40" y="20810" fill="#9b5b66">granit rose</text><text x="40" y="20880" fill="#c7e666">granny smith</text><text x="40" y="20950" fill="#e9383f">grenadine</text><text x="40" y="21020" fill="#6e0b14">grenat</text><text x="40" y="21090" fill="#333333">gris</text><text x="40" y="21160" fill="#424242">gris anthracite</text><text x="40" y="21230" fill="#d3d3d6">gris chromé</text><text x="40" y="21300" fill="#677179">gris de Payne</text><text x="40" y="21370" fill="#d2caec">gris de lin</text><text x="40" y="21440" fill="#685e43">gris de maure</text><text x="40" y="21510" fill="#4f4b41">gris falaise</text><text x="40" y="21580" fill="#7f7f7f">gris fer</text><text x="40" y="21650" fill="#bbd2e1">gris fumée</text><text x="40" y="21720" fill="#cecece">gris perle</text><text x="40" y="21790" fill="#e6e8e8">gris pierre ponce</text><text x="40" y="21860" fill="#c0b3ae">gris pigeon</text><text x="40" y="21930" fill="#798081">gris plomb</text><text x="40" y="22000" fill="#b0a69c">gris rocher</text><text x="40" y="22070" fill="#956f7c">gris rosé</text><text x="40" y="22140" fill="#9e9e9e">gris souris</text><text x="40" y="22210" fill="#463f32">gris taupe</text><text x="40" y="22280" fill="#a49878">gris terre d'ombre</text><text x="40" y="22350" fill="#c1bfb1">gris tourdille</text><text x="40" y="22420" fill="#d7cecb">gris tourterelle</text><text x="40" y="22490" fill="#98aeae">gris vert</text><text x="40" y="22560" fill="#8e9078">gris éléphant</text><text x="40" y="22630" fill="#cf0a1d">groseille</text><text x="40" y="22700" fill="#3f7c85">grotte marine</text><text x="40" y="22770" fill="#bbae98">grège</text><text x="40" y="22840" fill="#e21313">gueules</text><text x="40" y="22910" fill="#947f60">havane</text><text x="40" y="22980" fill="#e4b468">houblon</text><text x="40" y="23050" fill="#bdcbcb">huître</text><text x="40" y="23120" fill="#df73ff">héliotrope</text><text x="40" y="23190" fill="#f7bb77">hêtre</text><text x="40" y="23260" fill="#fe96a0">incarnadin</text><text x="40" y="23330" fill="#ff6f7d">incarnat</text><text x="40" y="23400" fill="#791cf8">indigo</text><text x="40" y="23470" fill="#739fc1">indigo clair</text><text x="40" y="23540" fill="#776b98">iris</text><text x="40" y="23610" fill="#785e2f">isabelle</text><text x="40" y="23680" fill="#ffffd4">ivoire</text><text x="40" y="23750" fill="#ffb0be">jacinthe rose</text><text x="40" y="23820" fill="#87e990">jade</text><text x="40" y="23890" fill="#000000">jais</text><text x="40" y="23960" fill="#ffff00">jaune</text><text x="40" y="24030" fill="#efd242">jaune auréolin</text><text x="40" y="24100" fill="#d1b606">jaune banane</text><text x="40" y="24170" fill="#ffc840">jaune bouton d'or</text><text x="40" y="24240" fill="#f6dc12">jaune bouton d’or</text><text x="40" y="24310" fill="#e7f00d">jaune canari</text><text x="40" y="24380" fill="#f7ff3c">jaune citron</text><text x="40" y="24450" fill="#ffb515">jaune curry</text><text x="40" y="24520" fill="#eed153">jaune de Mars</text><text x="40" y="24590" fill="#fff0bc">jaune de Naples</text><text x="40" y="24660" fill="#edff0c">jaune de chrome</text><text x="40" y="24730" fill="#efd807">jaune d’or</text><text x="40" y="24800" fill="#ffff6b">jaune fleur de soufre</text><text x="40" y="24870" fill="#ffe436">jaune impérial</text><text x="40" y="24940" fill="#ffde75">jaune maïs</text><text x="40" y="25010" fill="#fef86c">jaune mimosa</text><text x="40" y="25080" fill="#c7cf00">jaune moutarde</text><text x="40" y="25150" fill="#f7e269">jaune nankin</text><text x="40" y="25220" fill="#fee347">jaune paille</text><text x="40" y="25290" fill="#ffe793">jaune pamplemousse</text><text x="40" y="25360" fill="#f7e35f">jaune poussin</text><text x="40" y="25430" fill="#fff1af">jaune primevère</text><text x="40" y="25500" fill="#fdf9cd">jaune pâle</text><text x="40" y="25570" fill="#ffff6b">jaune soufre</text><text x="40" y="25640" fill="#ffd600">jaune vif</text><text x="40" y="25710" fill="#ffe300">jonquille</text><text x="40" y="25780" fill="#bc9a78">jute</text><text x="40" y="25850" fill="#94812b">kaki</text><text x="40" y="25920" fill="#12aeba">lagon</text><text x="40" y="25990" fill="#90c3cc">lagune turquoise</text><text x="40" y="26060" fill="#cbb69c">laine de vigogne</text><text x="40" y="26130" fill="#c8ab6c">laiton</text><text x="40" y="26200" fill="#8a6e4e">lama</text><text x="40" y="26270" fill="#464563">lapis</text><text x="40" y="26340" fill="#26619c">lapis-lazuli</text><text x="40" y="26410" fill="#617a52">laurier vert</text><text x="40" y="26480" fill="#8f5922">lavallière</text><text x="40" y="26550" fill="#9683ec">lavande</text><text x="40" y="26620" fill="#ffeeeb">layette rose</text><text x="40" y="26690" fill="#ac1e44">lie-de-vin</text><text x="40" y="26760" fill="#b666d2">lilas</text><text x="40" y="26830" fill="#814952">lilas fané</text><text x="40" y="26900" fill="#e6ccd9">lilas rose</text><text x="40" y="26970" fill="#faf0e6">lin</text><text x="40" y="27040" fill="#b39f8b">lin bistre</text><text x="40" y="27110" fill="#dba9b2">litchee</text><text x="40" y="27180" fill="#9a7c5c">lièvre</text><text x="40" y="27250" fill="#625d50">loup gris</text><text x="40" y="27320" fill="#a4835c">loutre</text><text x="40" y="27390" fill="#372f25">maduro</text><text x="40" y="27460" fill="#5b3c11">maduro colorado</text><text x="40" y="27530" fill="#ff00ff">magenta</text><text x="40" y="27600" fill="#1fa055">malachite</text><text x="40" y="27670" fill="#fea347">mandarine</text><text x="40" y="27740" fill="#fdbd96">mangue</text><text x="40" y="27810" fill="#03224c">marine</text><text x="40" y="27880" fill="#582900">marron</text><text x="40" y="27950" fill="#ad7239">marron doré</text><text x="40" y="28020" fill="#a06c50">marron glacé</text><text x="40" y="28090" fill="#64abba">marée turquoise</text><text x="40" y="28160" fill="#b3b191">mastic</text><text x="40" y="28230" fill="#d473d4">mauve</text><text x="40" y="28300" fill="#ffde75">maïs</text><text x="40" y="28370" fill="#de9816">melon</text><text x="40" y="28440" fill="#16b84e">menthe</text><text x="40" y="28510" fill="#54f98d">menthe à l’eau</text><text x="40" y="28580" fill="#dab30a">miel</text><text x="40" y="28650" fill="#87591a">mordoré</text><text x="40" y="28720" fill="#948c36">mordoré</text><text x="40" y="28790" fill="#938b37">mordoré</text><text x="40" y="28860" fill="#000000">moreau</text><text x="40" y="28930" fill="#a2b5c6">mouette bleutée</text><text x="40" y="29000" fill="#c7cf00">moutarde</text><text x="40" y="29070" fill="#c28142">muscade</text><text x="40" y="29140" fill="#fc5d5d">nacarat</text><text x="40" y="29210" fill="#f7e269">nankin</text><text x="40" y="29280" fill="#fefefe">neige</text><text x="40" y="29350" fill="#000000">noir</text><text x="40" y="29420" fill="#000000">noir animal</text><text x="40" y="29490" fill="#000010">noir charbon</text><text x="40" y="29560" fill="#130e0a">noir de carbone</text><text x="40" y="29630" fill="#130e0a">noir de fumée</text><text x="40" y="29700" fill="#000000">noir de jais</text><text x="40" y="29770" fill="#120d16">noir d’aniline</text><text x="40" y="29840" fill="#000000">noir d’encre</text><text x="40" y="29910" fill="#000000">noir d’ivoire</text><text x="40" y="29980" fill="#2f1e0e">noiraud</text><text x="40" y="30050" fill="#955628">noisette</text><text x="40" y="30120" fill="#cf7939">nougatine</text><text x="40" y="30190" fill="#eefcfc">nuage bleu</text><text x="40" y="30260" fill="#cc7722">ocre</text><text x="40" y="30330" fill="#dfaf2c">ocre jaune</text><text x="40" y="30400" fill="#dd985c">ocre rouge</text><text x="40" y="30470" fill="#ac5414">ocre terre de Sienne</text><text x="40" y="30540" fill="#c66218">ocre toscane</text><text x="40" y="30610" fill="#ff8cae">oeillet de poète rose</text><text x="40" y="30680" fill="#708d23">olive</text><text x="40" y="30750" fill="#c7c077">olive cassée</text><text x="40" y="30820" fill="#205f2e">ombre verte</text><text x="40" y="30890" fill="#f2ffff">opalin</text><text x="40" y="30960" fill="#d2cb0f">or</text><text x="40" y="31030" fill="#c56a5b">or rose</text><text x="40" y="31100" fill="#ed7f10">orange</text><text x="40" y="31170" fill="#cc5500">orange brûlée</text><text x="40" y="31240" fill="#f78b13">orange fluo</text><text x="40" y="31310" fill="#ed7f10">orangé</text><text x="40" y="31380" fill="#da70d6">orchidée</text><text x="40" y="31450" fill="#fcd21c">orpiment</text><text x="40" y="31520" fill="#fcd21c">orpin de Perse</text><text x="40" y="31590" fill="#292107">oscuro</text><text x="40" y="31660" fill="#ae7720">osier</text><text x="40" y="31730" fill="#a26d20">osier</text><text x="40" y="31800" fill="#fee347">paille</text><text x="40" y="31870" fill="#ffefd5">papaye</text><text x="40" y="31940" fill="#f27842">papaye orange</text><text x="40" y="32010" fill="#edd38c">papier bulle</text><text x="40" y="32080" fill="#cfa0e9">parme</text><text x="40" y="32150" fill="#e3cbe3">parme clair</text><text x="40" y="32220" fill="#91283b">passe-velours</text><text x="40" y="32290" fill="#56739a">pastel</text><text x="40" y="32360" fill="#857b61">pavé gris</text><text x="40" y="32430" fill="#ffdfd5">peau de pêche</text><text x="40" y="32500" fill="#ebb7af">peau rosée</text><text x="40" y="32570" fill="#d58490">pelure d’oignon</text><text x="40" y="32640" fill="#835b8b">pensée</text><text x="40" y="32710" fill="#566a6a">perle de Tahiti</text><text x="40" y="32780" fill="#ccccff">pervenche</text><text x="40" y="32850" fill="#917b73">petit gris</text><text x="40" y="32920" fill="#d21035">piment</text><text x="40" y="32990" fill="#cccccc">pinchard</text><text x="40" y="33060" fill="#d2df84">pistache</text><text x="40" y="33130" fill="#faf0c5">platine</text><text x="40" y="33200" fill="#798081">plomb</text><text x="40" y="33270" fill="#d9ebf1">pluie d'été bleue</text><text x="40" y="33340" fill="#fee7da">plume rose</text><text x="40" y="33410" fill="#b67823">poil de chameau</text><text x="40" y="33480" fill="#bcb4ac">poivre blanc</text><text x="40" y="33550" fill="#484848">poivre noir</text><text x="40" y="33620" fill="#da6783">poivre rose</text><text x="40" y="33690" fill="#c60800">ponceau</text><text x="40" y="33760" fill="#f7a777">poterie</text><text x="40" y="33830" fill="#f56600">potiron</text><text x="40" y="33900" fill="#9e0e40">pourpre</text><text x="40" y="33970" fill="#a77c49">praliné</text><text x="40" y="34040" fill="#4ca66b">prasin</text><text x="40" y="34110" fill="#811453">prune</text><text x="40" y="34180" fill="#4e1609">puce</text><text x="40" y="34250" fill="#fbbfc2">pétale de rose</text><text x="40" y="34320" fill="#fdbfb7">pêche</text><text x="40" y="34390" fill="#ffe2e2">quartz rose</text><text x="40" y="34460" fill="#91283b">queue-de-renard</text><text x="40" y="34530" fill="#c3b470">queue-de-vache</text><text x="40" y="34600" fill="#72375d">raisin</text><text x="40" y="34670" fill="#6e655c">renne gris</text><text x="40" y="34740" fill="#ea9cc4">rhododendron rose</text><text x="40" y="34810" fill="#fd6c9e">rose</text><text x="40" y="34880" fill="#ffc9c9">rose Aurore</text><text x="40" y="34950" fill="#e02876">rose Bengale</text><text x="40" y="35020" fill="#f5adad">rose Grenadine</text><text x="40" y="35090" fill="#997a8d">rose Mountbatten</text><text x="40" y="35160" fill="#e7a9ac">rose Pompadour</text><text x="40" y="35230" fill="#e68a8a">rose ancien</text><text x="40" y="35300" fill="#ffcbd5">rose azalée</text><text x="40" y="35370" fill="#c4698f">rose balais</text><text x="40" y="35440" fill="#ffa4be">rose bombon</text><text x="40" y="35510" fill="#f9429e">rose bonbon</text><text x="40" y="35580" fill="#f8cac8">rose bruni</text><text x="40" y="35650" fill="#fed7cc">rose des sables</text><text x="40" y="35720" fill="#febfd2">rose dragée</text><text x="40" y="35790" fill="#ffded5">rose flamant</text><text x="40" y="35860" fill="#ff9191">rose fluo</text><text x="40" y="35930" fill="#ee546e">rose foncé</text><text x="40" y="36000" fill="#ba4a4a">rose framboise écrasée</text><text x="40" y="36070" fill="#fd3f92">rose fuchsia</text><text x="40" y="36140" fill="#f0ced4">rose guimauve</text><text x="40" y="36210" fill="#ff5773">rose géranium</text><text x="40" y="36280" fill="#e4a6ac">rose hortensia</text><text x="40" y="36350" fill="#d1286a">rose impatience</text><text x="40" y="36420" fill="#c54989">rose indien</text><text x="40" y="36490" fill="#9c2462">rose magenta</text><text x="40" y="36560" fill="#820043">rose magenta foncé</text><text x="40" y="36630" fill="#ffbdbd">rose pivoine</text><text x="40" y="36700" fill="#dfb3bb">rose poivré</text><text x="40" y="36770" fill="#ffdfd9">rose poudré</text><text x="40" y="36840" fill="#ff798c">rose pétunia</text><text x="40" y="36910" fill="#ff866a">rose thé</text><text x="40" y="36980" fill="#e8879b">rose trémière</text><text x="40" y="37050" fill="#fdb5b5">rose vif</text><text x="40" y="37120" fill="#fcb0b9">rose églantine</text><text x="40" y="37190" fill="#cf7373">roseraie</text><text x="40" y="37260" fill="#f3e1d7">rosée des prés</text><text x="40" y="37330" fill="#ff0000">rouge</text><text x="40" y="37400" fill="#a91101">rouge Andrinople</text><text x="40" y="37470" fill="#a5260a">rouge Bismarck</text><text x="40" y="37540" fill="#f7230c">rouge anglais</text><text x="40" y="37610" fill="#6d071a">rouge bordeaux</text><text x="40" y="37680" fill="#6b0d0d">rouge bourgogne</text><text x="40" y="37750" fill="#ff5e4d">rouge capucine</text><text x="40" y="37820" fill="#b82010">rouge cardinal</text><text x="40" y="37890" fill="#960018">rouge carmin</text><text x="40" y="37960" fill="#bb0b0b">rouge cerise</text><text x="40" y="38030" fill="#db1702">rouge cinabre</text><text x="40" y="38100" fill="#ff7992">rouge clair</text><text x="40" y="38170" fill="#c60800">rouge coquelicot</text><text x="40" y="38240" fill="#f7230c">rouge de Mars</text><text x="40" y="38310" fill="#a91101">rouge d’Andrinople</text><text x="40" y="38380" fill="#d90115">rouge d’alizarine</text><text x="40" y="38450" fill="#ed0000">rouge d’aniline</text><text x="40" y="38520" fill="#fe1b00">rouge feu</text><text x="40" y="38590" fill="#bf3030">rouge fraise</text><text x="40" y="38660" fill="#c72c48">rouge framboise</text><text x="40" y="38730" fill="#e9383f">rouge grenadine</text><text x="40" y="38800" fill="#6e0b14">rouge grenat</text><text x="40" y="38870" fill="#cf0a1d">rouge groseille</text><text x="40" y="38940" fill="#bb051f">rouge japonais</text><text x="40" y="39010" fill="#b71f33">rouge laque de Chine</text><text x="40" y="39080" fill="#913546">rouge lie de vin</text><text x="40" y="39150" fill="#c60800">rouge ponceau</text><text x="40" y="39220" fill="#b33b4b">rouge rubis</text><text x="40" y="39290" fill="#850606">rouge sang</text><text x="40" y="39360" fill="#de2916">rouge tomate</text><text x="40" y="39430" fill="#ae4a34">rouge tomette</text><text x="40" y="39500" fill="#e74967">rouge tulipe</text><text x="40" y="39570" fill="#a91101">rouge turc</text><text x="40" y="39640" fill="#db1702">rouge vermillon</text><text x="40" y="39710" fill="#fa3203">rouge vif</text><text x="40" y="39780" fill="#7b001b">rouge vin</text><text x="40" y="39850" fill="#e31d42">rouge écarlate</text><text x="40" y="39920" fill="#bc2001">rouge écrevisse</text><text x="40" y="39990" fill="#bf2d2d">rouge égyptien</text><text x="40" y="40060" fill="#a7132b">rouge-baiser</text><text x="40" y="40130" fill="#c71585">rouge-violet</text><text x="40" y="40200" fill="#985717">rouille</text><text x="40" y="40270" fill="#ad4f09">roux</text><text x="40" y="40340" fill="#2d241e">réglisse</text><text x="40" y="40410" fill="#000000">sable</text><text x="40" y="40480" fill="#f4bba9">sable rose</text><text x="40" y="40550" fill="#f3d617">safran</text><text x="40" y="40620" fill="#0131b4">safre</text><text x="40" y="40690" fill="#eccc9e">sahara</text><text x="40" y="40760" fill="#730800">sang de bœuf</text><text x="40" y="40830" fill="#850606">sanguine</text><text x="40" y="40900" fill="#0131b4">saphir</text><text x="40" y="40970" fill="#008e8e">sarcelle</text><text x="40" y="41040" fill="#f88e55">saumon</text><text x="40" y="41110" fill="#e5ce97">savane</text><text x="40" y="41180" fill="#d8bc9a">seigle</text><text x="40" y="41250" fill="#8d4024">senois</text><text x="40" y="41320" fill="#149414">sinople</text><text x="40" y="41390" fill="#967656">sisal</text><text x="40" y="41460" fill="#033990">smalt</text><text x="40" y="41530" fill="#01d758">smaragdin</text><text x="40" y="41600" fill="#ff7b4d">soleil couchant</text><text x="40" y="41670" fill="#ea8699">sorbet fraise</text><text x="40" y="41740" fill="#ffff6b">soufre</text><text x="40" y="41810" fill="#9e9e9e">souris</text><text x="40" y="41880" fill="#ae8964">sépia</text><text x="40" y="41950" fill="#9f551e">tabac</text><text x="40" y="42020" fill="#a75502">tanné</text><text x="40" y="42090" fill="#463f32">taupe</text><text x="40" y="42160" fill="#a68881">taupe clair</text><text x="40" y="42230" fill="#7d5d57">taupe foncé</text><text x="40" y="42300" fill="#492a13">teck</text><text x="40" y="42370" fill="#cb9051">teddy</text><text x="40" y="42440" fill="#657f7f">tempête</text><text x="40" y="42510" fill="#e27323">terracotta</text><text x="40" y="42580" fill="#d98978">terre cuite rosé</text><text x="40" y="42650" fill="#a98204">terre d'ocre</text><text x="40" y="42720" fill="#8e5434">terre de Sienne</text><text x="40" y="42790" fill="#926d27">terre d’ombre</text><text x="40" y="42860" fill="#a14b51">terre rose</text><text x="40" y="42930" fill="#7bac94">thym vert</text><text x="40" y="43000" fill="#dbbe7f">tisane verte</text><text x="40" y="43070" fill="#de2916">tomate</text><text x="40" y="43140" fill="#faea73">topaze</text><text x="40" y="43210" fill="#bbacac">tourterelle</text><text x="40" y="43280" fill="#bc5544">tuile</text><text x="40" y="43350" fill="#25fde9">turquoise</text><text x="40" y="43420" fill="#3eb6a1">vallée verte</text><text x="40" y="43490" fill="#e1ce9a">vanille</text><text x="40" y="43560" fill="#fad396">vent de sable orangé</text><text x="40" y="43630" fill="#e9c9b1">ventre de biche</text><text x="40" y="43700" fill="#ff0921">vermeil</text><text x="40" y="43770" fill="#db1702">vermillon</text><text x="40" y="43840" fill="#00ff00">vert</text><text x="40" y="43910" fill="#174923">vert Forêt noire</text><text x="40" y="43980" fill="#a6c298">vert Nil</text><text x="40" y="44050" fill="#156f49">vert Noël</text><text x="40" y="44120" fill="#5a6521">vert Véronèse</text><text x="40" y="44190" fill="#7fdd4c">vert absinthe</text><text x="40" y="44260" fill="#3d9384">vert acidulé</text><text x="40" y="44330" fill="#313919">vert algue</text><text x="40" y="44400" fill="#82c46c">vert amande</text><text x="40" y="44470" fill="#477759">vert amandier</text><text x="40" y="44540" fill="#18391e">vert anglais</text><text x="40" y="44610" fill="#9fe855">vert anis</text><text x="40" y="44680" fill="#898a58">vert artichaut</text><text x="40" y="44750" fill="#568203">vert avocat</text><text x="40" y="44820" fill="#006442">vert bambou</text><text x="40" y="44890" fill="#587141">vert basilic</text><text x="40" y="44960" fill="#096a09">vert bouteille</text><text x="40" y="45030" fill="#47a72f">vert brin d'herbe</text><text x="40" y="45100" fill="#aa8f56">vert bronze</text><text x="40" y="45170" fill="#bd9b51">vert bronze clair</text><text x="40" y="45240" fill="#405230">vert buis</text><text x="40" y="45310" fill="#888d33">vert cactus</text><text x="40" y="45380" fill="#559392">vert canard</text><text x="40" y="45450" fill="#ccb784">vert cardamome</text><text x="40" y="45520" fill="#889268">vert cendré</text><text x="40" y="45590" fill="#c2f732">vert chartreuse</text><text x="40" y="45660" fill="#347d75">vert chinois</text><text x="40" y="45730" fill="#8d784b">vert chêne liège</text><text x="40" y="45800" fill="#90c0b4">vert clair</text><text x="40" y="45870" fill="#ccd9b1">vert coeur de laitue</text><text x="40" y="45940" fill="#a7ae38">vert criquet</text><text x="40" y="46010" fill="#2c6a45">vert cyprès</text><text x="40" y="46080" fill="#83a697">vert céladon</text><text x="40" y="46150" fill="#e4ecd4">vert céleri</text><text x="40" y="46220" fill="#a9e2d8">vert d'eau</text><text x="40" y="46290" fill="#1b4f08">vert de Hooker</text><text x="40" y="46360" fill="#18391e">vert de chrome</text><text x="40" y="46430" fill="#95a595">vert de gris</text><text x="40" y="46500" fill="#22780f">vert de vessie</text><text x="40" y="46570" fill="#bcb34c">vert doré</text><text x="40" y="46640" fill="#406a3a">vert du Tyrol</text><text x="40" y="46710" fill="#a6a75d">vert du marais</text><text x="40" y="46780" fill="#b0f2b6">vert d’eau</text><text x="40" y="46850" fill="#00561b">vert empire</text><text x="40" y="46920" fill="#aebf79">vert estragon</text><text x="40" y="46990" fill="#4d8361">vert eucalyptus</text><text x="40" y="47060" fill="#8da675">vert fenouil</text><text x="40" y="47130" fill="#5e6b47">vert figuier</text><text x="40" y="47200" fill="#69885a">vert fougère</text><text x="40" y="47270" fill="#056517">vert fruits confits</text><text x="40" y="47340" fill="#c4cdac">vert galet</text><text x="40" y="47410" fill="#3a9d23">vert gazon</text><text x="40" y="47480" fill="#6fae9f">vert glacier</text><text x="40" y="47550" fill="#189065">vert golf</text><text x="40" y="47620" fill="#3a9d23">vert herbe</text><text x="40" y="47690" fill="#b89d64">vert herbes de Provence</text><text x="40" y="47760" fill="#00561b">vert impérial</text><text x="40" y="47830" fill="#87e990">vert jade</text><text x="40" y="47900" fill="#798933">vert kaki</text><text x="40" y="47970" fill="#85c17e">vert lichen</text><text x="40" y="48040" fill="#044d33">vert lierre</text><text x="40" y="48110" fill="#9efd38">vert lime</text><text x="40" y="48180" fill="#1fa055">vert malachite</text><text x="40" y="48250" fill="#a7cdaf">vert malachite clair</text><text x="40" y="48320" fill="#16b84e">vert menthe</text><text x="40" y="48390" fill="#1b9d6b">vert menthe à l'eau</text><text x="40" y="48460" fill="#54f98d">vert menthe à l’eau</text><text x="40" y="48530" fill="#596643">vert militaire</text><text x="40" y="48600" fill="#679f5a">vert mousse</text><text x="40" y="48670" fill="#4c5826">vert mousse de chêne</text><text x="40" y="48740" fill="#72843c">vert mousse dorée</text><text x="40" y="48810" fill="#386f48">vert mélèze</text><text x="40" y="48880" fill="#708d23">vert olive</text><text x="40" y="48950" fill="#5f6648">vert olivier</text><text x="40" y="49020" fill="#97dfc6">vert opaline</text><text x="40" y="49090" fill="#3af24b">vert perroquet</text><text x="40" y="49160" fill="#628a28">vert perruche</text><text x="40" y="49230" fill="#c4decc">vert peuplier</text><text x="40" y="49300" fill="#01796f">vert pin</text><text x="40" y="49370" fill="#338362">vert pinède</text><text x="40" y="49440" fill="#bef574">vert pistache</text><text x="40" y="49510" fill="#4ca66b">vert poireau</text><text x="40" y="49580" fill="#34c924">vert pomme</text><text x="40" y="49650" fill="#d7edcc">vert pousse de bambou</text><text x="40" y="49720" fill="#57d53b">vert prairie</text><text x="40" y="49790" fill="#4ca66b">vert prasin</text><text x="40" y="49860" fill="#00fe7e">vert printemps</text><text x="40" y="49930" fill="#57d53b">vert prés</text><text x="40" y="50000" fill="#a2d6ad">vert pâle</text><text x="40" y="50070" fill="#88ba91">vert rizière</text><text x="40" y="50140" fill="#728256">vert romarin</text><text x="40" y="50210" fill="#b9b982">vert résine</text><text x="40" y="50280" fill="#095228">vert sapin</text><text x="40" y="50350" fill="#689d71">vert sauge</text><text x="40" y="50420" fill="#71935c">vert scarabée</text><text x="40" y="50490" fill="#65a57d">vert serpent</text><text x="40" y="50560" fill="#01d758">vert smaragdin</text><text x="40" y="50630" fill="#424d21">vert sous-bois</text><text x="40" y="50700" fill="#bfa671">vert steppe</text><text x="40" y="50770" fill="#b9d7c0">vert tendre</text><text x="40" y="50840" fill="#a5d152">vert tilleul</text><text x="40" y="50910" fill="#969e7e">vert treillis</text><text x="40" y="50980" fill="#1ffed8">vert turquoise</text><text x="40" y="51050" fill="#9ca482">vert tweed</text><text x="40" y="51120" fill="#01d758">vert émeraude</text><text x="40" y="51190" fill="#508b7d">vert épicéa</text><text x="40" y="51260" fill="#175732">vert épinard</text><text x="40" y="51330" fill="#396f52">vert étang</text><text x="40" y="51400" fill="#738b5b">verveine</text><text x="40" y="51470" fill="#e24874">verveine rose</text><text x="40" y="51540" fill="#ce9124">vieil or</text><text x="40" y="51610" fill="#e2a099">vieux Rose</text><text x="40" y="51680" fill="#c96b70">vin de framboise</text><text x="40" y="51750" fill="#8806ce">violet</text><text x="40" y="51820" fill="#723e64">violet d’évêque</text><text x="40" y="51890" fill="#633666">violet foncé</text><text x="40" y="51960" fill="#dbb3cb">violet pastel</text><text x="40" y="52030" fill="#946083">violet pourpre</text><text x="40" y="52100" fill="#803a6b">violette</text><text x="40" y="52170" fill="#a10684">violine</text><text x="40" y="52240" fill="#40826d">viride</text><text x="40" y="52310" fill="#653919">vison</text><text x="40" y="52380" fill="#6c0277">zinzolin</text><text x="40" y="52450" fill="#000000">ébène</text><text x="40" y="52520" fill="#ed0000">écarlate</text><text x="40" y="52590" fill="#fefee0">écru</text><text x="40" y="52660" fill="#01d758">émeraude</text><text x="40" y="52730" fill="#ededed">étain</text><text x="40" y="52800" fill="#bababa">étain oxydé</text>
</svg>