<svg xmlns="http://www.w3.org/2000/svg" viewBox="0 0 600 52370">
  <defs>
    <style type="text/css">
      @import url('https://rsms.me/inter/inter.css');
      text {
        font-family: Inter, -apple-system, BlinkMacSystemFont, "Segoe UI", Roboto, Helvetica, Arial, sans-serif, "Apple Color Emoji", "Segoe UI Emoji", "Segoe UI Symbol";
        font-size: 40px;
        font-weight: 900;
      }
    </style>
  </defs>
  <rect fill="#202124" x="0" y="0" width="600" height="52370"/>
  <text x="40" y="90" fill="#e67e30">Abricot</text><text x="40" y="160" fill="#7fdd4c">Absinthe</text><text x="40" y="230" fill="#88421d">Acajou</text><text x="40" y="300" fill="#6c6c6c">Acier</text><text x="40" y="370" fill="#79f8f8">Aigue-Marine</text><text x="40" y="440" fill="#acd8e2">Aigue-Marine Bleue</text><text x="40" y="510" fill="#000000">Aile de Corbeau</text><text x="40" y="580" fill="#c5e8ed">Air Marin</text><text x="40" y="650" fill="#fefefe">Albâtre</text><text x="40" y="720" fill="#a76726">Alezan</text><text x="40" y="790" fill="#82c46c">Amande</text><text x="40" y="860" fill="#91283b">Amarante</text><text x="40" y="930" fill="#f0c300">Ambre Jaune</text><text x="40" y="1000" fill="#ad390e">Ambre Rouge</text><text x="40" y="1070" fill="#884da7">Améthyste</text><text x="40" y="1140" fill="#a3638b">Améthyste Violette</text><text x="40" y="1210" fill="#303030">Anthracite</text><text x="40" y="1280" fill="#ad4f09">Aquilain</text><text x="40" y="1350" fill="#5a5e6b">Ardoise</text><text x="40" y="1420" fill="#455c71">Ardoise Grise</text><text x="40" y="1490" fill="#cecece">Argent</text><text x="40" y="1560" fill="#efefef">Argile</text><text x="40" y="1630" fill="#5ba05b">Asperge</text><text x="40" y="1700" fill="#eeaa9b">Aube Rose</text><text x="40" y="1770" fill="#370028">Aubergine</text><text x="40" y="1840" fill="#9d3e0c">Auburn</text><text x="40" y="1910" fill="#ffcb60">Aurore</text><text x="40" y="1980" fill="#568203">Avocat</text><text x="40" y="2050" fill="#1e7fcb">Azur</text><text x="40" y="2120" fill="#a9eafe">Azurin</text><text x="40" y="2190" fill="#7e6b42">Badiane</text><text x="40" y="2260" fill="#e36d6d">Baies Roses</text><text x="40" y="2330" fill="#ae642d">Baillet</text><text x="40" y="2400" fill="#d1b606">Banane</text><text x="40" y="2470" fill="#5ba3b3">Banquise Bleue</text><text x="40" y="2540" fill="#8b6c42">Basané</text><text x="40" y="2610" fill="#c8ad7f">Beige</text><text x="40" y="2680" fill="#ffe2cf">Beige Cachemire</text><text x="40" y="2750" fill="#e3d8cc">Beige Flanelle</text><text x="40" y="2820" fill="#c48e70">Beige Foncé</text><text x="40" y="2890" fill="#f7cbbf">Beige Rosé</text><text x="40" y="2960" fill="#afa77b">Beigeasse</text><text x="40" y="3030" fill="#f0e36b">Beurre</text><text x="40" y="3100" fill="#fff48d">Beurre Frais</text><text x="40" y="3170" fill="#f1e2be">Bis</text><text x="40" y="3240" fill="#ffe4c4">Bisque</text><text x="40" y="3310" fill="#856d4d">Bistre</text><text x="40" y="3380" fill="#4e3d28">Bitume</text><text x="40" y="3450" fill="#ffffff">Blanc</text><text x="40" y="3520" fill="#fefee2">Blanc Cassé</text><text x="40" y="3590" fill="#fdf1b8">Blanc Crème</text><text x="40" y="3660" fill="#ffffff">Blanc Lumière</text><text x="40" y="3730" fill="#f4fefe">Blanc Lunaire</text><text x="40" y="3800" fill="#faf6f0">Blanc d'Ail</text><text x="40" y="3870" fill="#fefefe">Blanc d'Argent</text><text x="40" y="3940" fill="#fefdf0">Blanc d'Espagne</text><text x="40" y="4010" fill="#fefefe">Blanc de Céruse</text><text x="40" y="4080" fill="#fbfcfa">Blanc de Lait</text><text x="40" y="4150" fill="#fefdf0">Blanc de Meudon</text><text x="40" y="4220" fill="#fefefe">Blanc de Plomb</text><text x="40" y="4290" fill="#fefdf0">Blanc de Troyes</text><text x="40" y="4360" fill="#f6fefe">Blanc de Zinc</text><text x="40" y="4430" fill="#fefefe">Blanc-Bleu</text><text x="40" y="4500" fill="#5b3c11">Blet</text><text x="40" y="4570" fill="#0000ff">Bleu</text><text x="40" y="4640" fill="#3a8eba">Bleu Acier</text><text x="40" y="4710" fill="#686f8c">Bleu Ardoise</text><text x="40" y="4780" fill="#1e7fcb">Bleu Azur</text><text x="40" y="4850" fill="#5472ae">Bleu Barbeau</text><text x="40" y="4920" fill="#5472ae">Bleu Bleuet</text><text x="40" y="4990" fill="#048b9a">Bleu Canard</text><text x="40" y="5060" fill="#2696b6">Bleu Caraïbes</text><text x="40" y="5130" fill="#5c7294">Bleu Chardon</text><text x="40" y="5200" fill="#8ea2c6">Bleu Charrette</text><text x="40" y="5270" fill="#8ea2c6">Bleu Charron</text><text x="40" y="5340" fill="#77b5fe">Bleu Ciel</text><text x="40" y="5410" fill="#dbe2e9">Bleu Clair de Lune</text><text x="40" y="5480" fill="#22427c">Bleu Cobalt</text><text x="40" y="5550" fill="#26c4ec">Bleu Céleste</text><text x="40" y="5620" fill="#357ab7">Bleu Cérule</text><text x="40" y="5690" fill="#357ab7">Bleu Céruléen</text><text x="40" y="5760" fill="#bbc3d9">Bleu Doux</text><text x="40" y="5830" fill="#dff2ff">Bleu Dragée</text><text x="40" y="5900" fill="#2c75ff">Bleu Electrique</text><text x="40" y="5970" fill="#3d95a5">Bleu Fjord</text><text x="40" y="6040" fill="#318ce7">Bleu France</text><text x="40" y="6110" fill="#bbd2e1">Bleu Fumée</text><text x="40" y="6180" fill="#a1c2d7">Bleu Gauloise</text><text x="40" y="6250" fill="#4781a5">Bleu Gentiane</text><text x="40" y="6320" fill="#80d0d0">Bleu Givré</text><text x="40" y="6390" fill="#d3d7ed">Bleu Glacier</text><text x="40" y="6460" fill="#6a859e">Bleu Gris</text><text x="40" y="6530" fill="#56739a">Bleu Guède</text><text x="40" y="6600" fill="#748eb6">Bleu Horizon</text><text x="40" y="6670" fill="#b7bfdd">Bleu Hortensia</text><text x="40" y="6740" fill="#24445c">Bleu Hussard</text><text x="40" y="6810" fill="#cddfed">Bleu Igloo</text><text x="40" y="6880" fill="#253b73">Bleu Indigo</text><text x="40" y="6950" fill="#21177d">Bleu Klein</text><text x="40" y="7020" fill="#9683ec">Bleu Lavande</text><text x="40" y="7090" fill="#8f9cc1">Bleu Layette</text><text x="40" y="7160" fill="#6050dc">Bleu Majorelle</text><text x="40" y="7230" fill="#03224c">Bleu Marine</text><text x="40" y="7300" fill="#24445c">Bleu Minéral</text><text x="40" y="7370" fill="#bddded">Bleu Myosotis</text><text x="40" y="7440" fill="#213063">Bleu Myrtille</text><text x="40" y="7510" fill="#7b8eab">Bleu Méditerranée</text><text x="40" y="7580" fill="#4f93a7">Bleu Nattier</text><text x="40" y="7650" fill="#06e3e6">Bleu Navajo</text><text x="40" y="7720" fill="#0f056b">Bleu Nuit</text><text x="40" y="7790" fill="#396987">Bleu Océan</text><text x="40" y="7860" fill="#999fb7">Bleu Orage</text><text x="40" y="7930" fill="#1b019b">Bleu Outremer</text><text x="40" y="8000" fill="#067790">Bleu Paon</text><text x="40" y="8070" fill="#93b4ce">Bleu Pastel</text><text x="40" y="8140" fill="#660ff0">Bleu Persan</text><text x="40" y="8210" fill="#14aad0">Bleu Piscine</text><text x="40" y="8280" fill="#1c5066">Bleu Polaire Foncé</text><text x="40" y="8350" fill="#c7d1db">Bleu Porcelaine Clair</text><text x="40" y="8420" fill="#1d4851">Bleu Pétrole</text><text x="40" y="8490" fill="#384c5e">Bleu Pétrole Foncé</text><text x="40" y="8560" fill="#318ce7">Bleu Roi</text><text x="40" y="8630" fill="#318ce7">Bleu Roy</text><text x="40" y="8700" fill="#0131b4">Bleu Saphir</text><text x="40" y="8770" fill="#008e8e">Bleu Sarcelle</text><text x="40" y="8840" fill="#1b2853">Bleu Sureau</text><text x="40" y="8910" fill="#94a8c6">Bleu Tendre</text><text x="40" y="8980" fill="#6b9ebf">Bleu Touareg</text><text x="40" y="9050" fill="#425b8a">Bleu Turquin</text><text x="40" y="9120" fill="#25fde9">Bleu Turquoise</text><text x="40" y="9190" fill="#99cfd9">Bleu Vert</text><text x="40" y="9260" fill="#24445c">Bleu d'Anvers</text><text x="40" y="9330" fill="#b8d2e6">Bleu d'Azur</text><text x="40" y="9400" fill="#24445c">Bleu de Berlin</text><text x="40" y="9470" fill="#555b7b">Bleu de Chine</text><text x="40" y="9540" fill="#22427c">Bleu de Cobalt</text><text x="40" y="9610" fill="#5a8fb8">Bleu de Delft</text><text x="40" y="9680" fill="#318ce7">Bleu de France</text><text x="40" y="9750" fill="#033660">Bleu de Minuit</text><text x="40" y="9820" fill="#488e9a">Bleu de Perse</text><text x="40" y="9890" fill="#24445c">Bleu de Prusse</text><text x="40" y="9960" fill="#11416d">Bleu de Sèvres</text><text x="40" y="10030" fill="#00cccb">Bleu des Mers du Sud</text><text x="40" y="10100" fill="#707da2">Bleuet</text><text x="40" y="10170" fill="#e2bc74">Blond</text><text x="40" y="10240" fill="#e7a854">Blond Vénitien</text><text x="40" y="10310" fill="#f18787">Blush Rose</text><text x="40" y="10380" fill="#e8d630">Blé</text><text x="40" y="10450" fill="#594937">Bois Foncé</text><text x="40" y="10520" fill="#cc847c">Bois de Rose</text><text x="40" y="10590" fill="#bc6c64">Bois de Rose Foncé</text><text x="40" y="10660" fill="#785762">Bois de Violette</text><text x="40" y="10730" fill="#6d071a">Bordeaux</text><text x="40" y="10800" fill="#9b1359">Bougainvillée</text><text x="40" y="10870" fill="#e7d6c1">Bouleau</text><text x="40" y="10940" fill="#d8e498">Bourgeon Vert</text><text x="40" y="11010" fill="#6b0d0d">Bourgogne</text><text x="40" y="11080" fill="#fcdc12">Bouton d'or</text><text x="40" y="11150" fill="#ffc0cd">Bouton de Rose</text><text x="40" y="11220" fill="#842e1b">Brique</text><text x="40" y="11290" fill="#614e1a">Bronze</text><text x="40" y="11360" fill="#3f2204">Brou de Noix</text><text x="40" y="11430" fill="#e5fcfd">Brume de Mer Bleue</text><text x="40" y="11500" fill="#d7cbd3">Brume de Rose</text><text x="40" y="11570" fill="#5b3c11">Brun</text><text x="40" y="11640" fill="#796047">Brun Castor</text><text x="40" y="11710" fill="#985e33">Brun Cigare</text><text x="40" y="11780" fill="#82340a">Brun Palissandre</text><text x="40" y="11850" fill="#675541">Brun Racine</text><text x="40" y="11920" fill="#964a3f">Brun Rosé</text><text x="40" y="11990" fill="#984436">Brun Rouge</text><text x="40" y="12060" fill="#a64510">Brun Tomette</text><text x="40" y="12130" fill="#b7737f">Bruyère</text><text x="40" y="12200" fill="#6b5731">Bureau</text><text x="40" y="12270" fill="#cdcd0d">Caca d'Oie</text><text x="40" y="12340" fill="#614b3a">Cacao</text><text x="40" y="12410" fill="#2f1b0c">Cachou</text><text x="40" y="12480" fill="#462e01">Café</text><text x="40" y="12550" fill="#785e2f">Café au Lait</text><text x="40" y="12620" fill="#e4bb8e">Camel</text><text x="40" y="12690" fill="#f6dc98">Camomille</text><text x="40" y="12760" fill="#60678c">Campanule Bleue</text><text x="40" y="12830" fill="#7e5835">Cannelle</text><text x="40" y="12900" fill="#ff5e4d">Capucine</text><text x="40" y="12970" fill="#7e3300">Caramel</text><text x="40" y="13040" fill="#960018">Carmin</text><text x="40" y="13110" fill="#411f20">Carmélite</text><text x="40" y="13180" fill="#fec3ac">Carnation</text><text x="40" y="13250" fill="#fec3ac">Carné</text><text x="40" y="13320" fill="#f4661b">Carotte</text><text x="40" y="13390" fill="#bce3e6">Cascade Bleue</text><text x="40" y="13460" fill="#3a020d">Cassis</text><text x="40" y="13530" fill="#7880a4">Cendre Bleue</text><text x="40" y="13600" fill="#abb197">Cendre Verte</text><text x="40" y="13670" fill="#b79da7">Cendre de Rose</text><text x="40" y="13740" fill="#bb0b0b">Cerise</text><text x="40" y="13810" fill="#fec3ac">Chair</text><text x="40" y="13880" fill="#d0c07a">Chamois</text><text x="40" y="13950" fill="#fbf2b7">Champagne</text><text x="40" y="14020" fill="#ddd8cb">Chanvre</text><text x="40" y="14090" fill="#000010">Charbonneux</text><text x="40" y="14160" fill="#85530f">Chaudron</text><text x="40" y="14230" fill="#fefefe">Chenu</text><text x="40" y="14300" fill="#5a3a22">Chocolat</text><text x="40" y="14370" fill="#94631a">Châtaigier</text><text x="40" y="14440" fill="#806d5a">Châtaigne</text><text x="40" y="14510" fill="#8b6c42">Châtain</text><text x="40" y="14580" fill="#b78b61">Chêne</text><text x="40" y="14650" fill="#c69f7b">Chêne Clair</text><text x="40" y="14720" fill="#c7cad7">Ciel Orageux</text><text x="40" y="14790" fill="#db1702">Cinabre</text><text x="40" y="14860" fill="#f7ff3c">Citron</text><text x="40" y="14930" fill="#9ecf34">Citron Vert</text><text x="40" y="15000" fill="#df6d14">Citrouille</text><text x="40" y="15070" fill="#59c7b4">Clair de Véronèse</text><text x="40" y="15140" fill="#b9b276">Clarissimo</text><text x="40" y="15210" fill="#845a3b">Claro</text><text x="40" y="15280" fill="#ba9b61">Claro Claro</text><text x="40" y="15350" fill="#361f0e">Clou de Girofle</text><text x="40" y="15420" fill="#ffbf57">Clémentine</text><text x="40" y="15490" fill="#6a455d">Colombin</text><text x="40" y="15560" fill="#703516">Colorado</text><text x="40" y="15630" fill="#6a4b21">Colorado Claro</text><text x="40" y="15700" fill="#c60800">Coquelicot</text><text x="40" y="15770" fill="#f2e3ce">Coquillage</text><text x="40" y="15840" fill="#dde3e3">Coquille d'Huitre</text><text x="40" y="15910" fill="#ffeee3">Coquille d'Oeuf</text><text x="40" y="15980" fill="#fde9e0">Coquille d'Œuf</text><text x="40" y="16050" fill="#e73e01">Corail</text><text x="40" y="16120" fill="#d1baa1">Cordage Beige</text><text x="40" y="16190" fill="#e7e2d3">Cotonnade</text><text x="40" y="16260" fill="#dc143c">Cramoisi</text><text x="40" y="16330" fill="#f7976f">Crevette</text><text x="40" y="16400" fill="#fdf1b8">Crème</text><text x="40" y="16470" fill="#863022">Cuir Rouge</text><text x="40" y="16540" fill="#fee7f0">Cuisse de Nymphe</text><text x="40" y="16610" fill="#b36700">Cuivre</text><text x="40" y="16680" fill="#68251a">Cuivre Rouge</text><text x="40" y="16750" fill="#2bfafa">Cyan</text><text x="40" y="16820" fill="#f4aed5">Cyclamen</text><text x="40" y="16890" fill="#26c4ec">Cæruléum</text><text x="40" y="16960" fill="#357ab7">Céruléen</text><text x="40" y="17030" fill="#ffffd4">D'Ivoire</text><text x="40" y="17100" fill="#881531">Dahlia Noir</text><text x="40" y="17170" fill="#fc90a2">Dahlia Rose</text><text x="40" y="17240" fill="#b69b7e">Daim</text><text x="40" y="17310" fill="#1560bd">Denim</text><text x="40" y="17380" fill="#ba9b61">Double Claro</text><text x="40" y="17450" fill="#f8e4c8">Dune</text><text x="40" y="17520" fill="#dbecf5">Eau Bleutée</text><text x="40" y="17590" fill="#000000">Ebène</text><text x="40" y="17660" fill="#ed0000">Ecarlate</text><text x="40" y="17730" fill="#49b3a1">Eclat d'Emeraude</text><text x="40" y="17800" fill="#7f6a55">Ecorce</text><text x="40" y="17870" fill="#fefee0">Ecru</text><text x="40" y="17940" fill="#b35f2b">Ecureuil</text><text x="40" y="18010" fill="#f9f7f1">Edelweiss</text><text x="40" y="18080" fill="#7eb1c8">Embruns Bleutés</text><text x="40" y="18150" fill="#01d758">Emeraude</text><text x="40" y="18220" fill="#2c597c">Encre Bleue</text><text x="40" y="18290" fill="#f2af68">Epices</text><text x="40" y="18360" fill="#ededed">Etain</text><text x="40" y="18430" fill="#bababa">Etain Oxydé</text><text x="40" y="18500" fill="#ebeae7">Falaise</text><text x="40" y="18570" fill="#f27688">Fard à Joue Rose</text><text x="40" y="18640" fill="#ad4f09">Fauve</text><text x="40" y="18710" fill="#bc8d0e">Fennec</text><text x="40" y="18780" fill="#848484">Fer</text><text x="40" y="18850" fill="#6b5743">Fer Forgé</text><text x="40" y="18920" fill="#eb6307">Feu</text><text x="40" y="18990" fill="#ff4901">Feu Vif</text><text x="40" y="19060" fill="#99512b">Feuille-Morte</text><text x="40" y="19130" fill="#b1aa97">Feutre Gris</text><text x="40" y="19200" fill="#dcc4aa">Ficelle</text><text x="40" y="19270" fill="#ffadbc">Flamant Rose</text><text x="40" y="19340" fill="#e6e697">Flave</text><text x="40" y="19410" fill="#b0c0da">Fleur de Lin Bleue</text><text x="40" y="19480" fill="#ffff6b">Fleur de Soufre</text><text x="40" y="19550" fill="#ba91aa">Fleur de Thym Parme</text><text x="40" y="19620" fill="#fbd5bb">Fond de Teint</text><text x="40" y="19690" fill="#bf3030">Fraise</text><text x="40" y="19760" fill="#a42424">Fraise Ecrasée</text><text x="40" y="19830" fill="#b32f48">Fraise des Bois</text><text x="40" y="19900" fill="#c72c48">Framboise</text><text x="40" y="19970" fill="#bc4365">Framboise Glacée</text><text x="40" y="20040" fill="#970b23">Fruits Rouges</text><text x="40" y="20110" fill="#fd3f92">Fuchsia</text><text x="40" y="20180" fill="#877d73">Fumée Grise</text><text x="40" y="20250" fill="#f3478b">Fuschia</text><text x="40" y="20320" fill="#636458">Galet</text><text x="40" y="20390" fill="#ee1010">Garance</text><text x="40" y="20460" fill="#d2bca6">Gingembre</text><text x="40" y="20530" fill="#ba8b7c">Glaise</text><text x="40" y="20600" fill="#649b88">Glauque</text><text x="40" y="20670" fill="#c9a0dc">Glycine</text><text x="40" y="20740" fill="#ada7c7">Glycine Violette</text><text x="40" y="20810" fill="#3b768f">Grand Bleu</text><text x="40" y="20880" fill="#ababab">Granit Gris</text><text x="40" y="20950" fill="#9b5b66">Granit Rose</text><text x="40" y="21020" fill="#c7e666">Granny Smith</text><text x="40" y="21090" fill="#e9383f">Grenadine</text><text x="40" y="21160" fill="#6e0b14">Grenat</text><text x="40" y="21230" fill="#333333">Gris</text><text x="40" y="21300" fill="#424242">Gris Anthracite</text><text x="40" y="21370" fill="#d3d3d6">Gris Chromé</text><text x="40" y="21440" fill="#8e9078">Gris Eléphant</text><text x="40" y="21510" fill="#4f4b41">Gris Falaise</text><text x="40" y="21580" fill="#7f7f7f">Gris Fer</text><text x="40" y="21650" fill="#bbd2e1">Gris Fumée</text><text x="40" y="21720" fill="#cecece">Gris Perle</text><text x="40" y="21790" fill="#e6e8e8">Gris Pierre Ponce</text><text x="40" y="21860" fill="#c0b3ae">Gris Pigeon</text><text x="40" y="21930" fill="#798081">Gris Plomb</text><text x="40" y="22000" fill="#b0a69c">Gris Rocher</text><text x="40" y="22070" fill="#956f7c">Gris Rosé</text><text x="40" y="22140" fill="#9e9e9e">Gris Souris</text><text x="40" y="22210" fill="#463f32">Gris Taupe</text><text x="40" y="22280" fill="#a49878">Gris Terre d'Ombre</text><text x="40" y="22350" fill="#c1bfb1">Gris Tourdille</text><text x="40" y="22420" fill="#d7cecb">Gris Tourterelle</text><text x="40" y="22490" fill="#98aeae">Gris Vert</text><text x="40" y="22560" fill="#d2caec">Gris de Lin</text><text x="40" y="22630" fill="#685e43">Gris de Maure</text><text x="40" y="22700" fill="#677179">Gris de Payne</text><text x="40" y="22770" fill="#cf0a1d">Groseille</text><text x="40" y="22840" fill="#3f7c85">Grotte Marine</text><text x="40" y="22910" fill="#bbae98">Grège</text><text x="40" y="22980" fill="#e21313">Gueules</text><text x="40" y="23050" fill="#947f60">Havane</text><text x="40" y="23120" fill="#e4b468">Houblon</text><text x="40" y="23190" fill="#bdcbcb">Huître</text><text x="40" y="23260" fill="#df73ff">Héliotrope</text><text x="40" y="23330" fill="#f7bb77">Hêtre</text><text x="40" y="23400" fill="#fe96a0">Incarnadin</text><text x="40" y="23470" fill="#ff6f7d">Incarnat</text><text x="40" y="23540" fill="#791cf8">Indigo</text><text x="40" y="23610" fill="#739fc1">Indigo Clair</text><text x="40" y="23680" fill="#776b98">Iris</text><text x="40" y="23750" fill="#785e2f">Isabelle</text><text x="40" y="23820" fill="#ffffd4">Ivoire</text><text x="40" y="23890" fill="#ffb0be">Jacinthe Rose</text><text x="40" y="23960" fill="#87e990">Jade</text><text x="40" y="24030" fill="#000000">Jais</text><text x="40" y="24100" fill="#ffff00">Jaune</text><text x="40" y="24170" fill="#efd242">Jaune Auréolin</text><text x="40" y="24240" fill="#d1b606">Jaune Banane</text><text x="40" y="24310" fill="#f6dc12">Jaune Bouton d'or</text><text x="40" y="24380" fill="#e7f00d">Jaune Canari</text><text x="40" y="24450" fill="#f7ff3c">Jaune Citron</text><text x="40" y="24520" fill="#ffb515">Jaune Curry</text><text x="40" y="24590" fill="#ffff6b">Jaune Fleur de Soufre</text><text x="40" y="24660" fill="#ffe436">Jaune Impérial</text><text x="40" y="24730" fill="#ffde75">Jaune Maïs</text><text x="40" y="24800" fill="#fef86c">Jaune Mimosa</text><text x="40" y="24870" fill="#c7cf00">Jaune Moutarde</text><text x="40" y="24940" fill="#f7e269">Jaune Nankin</text><text x="40" y="25010" fill="#fee347">Jaune Paille</text><text x="40" y="25080" fill="#ffe793">Jaune Pamplemousse</text><text x="40" y="25150" fill="#f7e35f">Jaune Poussin</text><text x="40" y="25220" fill="#fff1af">Jaune Primevère</text><text x="40" y="25290" fill="#fdf9cd">Jaune Pâle</text><text x="40" y="25360" fill="#ffff6b">Jaune Soufre</text><text x="40" y="25430" fill="#ffd600">Jaune Vif</text><text x="40" y="25500" fill="#efd807">Jaune d'or</text><text x="40" y="25570" fill="#edff0c">Jaune de Chrome</text><text x="40" y="25640" fill="#eed153">Jaune de Mars</text><text x="40" y="25710" fill="#fff0bc">Jaune de Naples</text><text x="40" y="25780" fill="#ffe300">Jonquille</text><text x="40" y="25850" fill="#bc9a78">Jute</text><text x="40" y="25920" fill="#94812b">Kaki</text><text x="40" y="25990" fill="#12aeba">Lagon</text><text x="40" y="26060" fill="#90c3cc">Lagune Turquoise</text><text x="40" y="26130" fill="#cbb69c">Laine de Vigogne</text><text x="40" y="26200" fill="#c8ab6c">Laiton</text><text x="40" y="26270" fill="#8a6e4e">Lama</text><text x="40" y="26340" fill="#464563">Lapis</text><text x="40" y="26410" fill="#26619c">Lapis-Lazuli</text><text x="40" y="26480" fill="#617a52">Laurier Vert</text><text x="40" y="26550" fill="#8f5922">Lavallière</text><text x="40" y="26620" fill="#9683ec">Lavande</text><text x="40" y="26690" fill="#ffeeeb">Layette Rose</text><text x="40" y="26760" fill="#ac1e44">Lie-de-vin</text><text x="40" y="26830" fill="#b666d2">Lilas</text><text x="40" y="26900" fill="#814952">Lilas Fané</text><text x="40" y="26970" fill="#e6ccd9">Lilas Rose</text><text x="40" y="27040" fill="#faf0e6">Lin</text><text x="40" y="27110" fill="#b39f8b">Lin Bistre</text><text x="40" y="27180" fill="#dba9b2">Litchee</text><text x="40" y="27250" fill="#9a7c5c">Lièvre</text><text x="40" y="27320" fill="#625d50">Loup Gris</text><text x="40" y="27390" fill="#a4835c">Loutre</text><text x="40" y="27460" fill="#372f25">Maduro</text><text x="40" y="27530" fill="#5b3c11">Maduro Colorado</text><text x="40" y="27600" fill="#ff00ff">Magenta</text><text x="40" y="27670" fill="#1fa055">Malachite</text><text x="40" y="27740" fill="#fea347">Mandarine</text><text x="40" y="27810" fill="#fdbd96">Mangue</text><text x="40" y="27880" fill="#03224c">Marine</text><text x="40" y="27950" fill="#582900">Marron</text><text x="40" y="28020" fill="#ad7239">Marron Doré</text><text x="40" y="28090" fill="#a06c50">Marron Glacé</text><text x="40" y="28160" fill="#64abba">Marée Turquoise</text><text x="40" y="28230" fill="#b3b191">Mastic</text><text x="40" y="28300" fill="#d473d4">Mauve</text><text x="40" y="28370" fill="#ffde75">Maïs</text><text x="40" y="28440" fill="#de9816">Melon</text><text x="40" y="28510" fill="#16b84e">Menthe</text><text x="40" y="28580" fill="#54f98d">Menthe à l'Eau</text><text x="40" y="28650" fill="#dab30a">Miel</text><text x="40" y="28720" fill="#87591a">Mordoré</text><text x="40" y="28790" fill="#948c36">Mordoré</text><text x="40" y="28860" fill="#938b37">Mordoré</text><text x="40" y="28930" fill="#000000">Moreau</text><text x="40" y="29000" fill="#a2b5c6">Mouette Bleutée</text><text x="40" y="29070" fill="#c7cf00">Moutarde</text><text x="40" y="29140" fill="#c28142">Muscade</text><text x="40" y="29210" fill="#fc5d5d">Nacarat</text><text x="40" y="29280" fill="#f7e269">Nankin</text><text x="40" y="29350" fill="#fefefe">Neige</text><text x="40" y="29420" fill="#000000">Noir</text><text x="40" y="29490" fill="#000000">Noir Animal</text><text x="40" y="29560" fill="#000010">Noir Charbon</text><text x="40" y="29630" fill="#120d16">Noir d'Aniline</text><text x="40" y="29700" fill="#000000">Noir d'Encre</text><text x="40" y="29770" fill="#000000">Noir d'Ivoire</text><text x="40" y="29840" fill="#130e0a">Noir de Carbone</text><text x="40" y="29910" fill="#130e0a">Noir de Fumée</text><text x="40" y="29980" fill="#000000">Noir de Jais</text><text x="40" y="30050" fill="#2f1e0e">Noiraud</text><text x="40" y="30120" fill="#955628">Noisette</text><text x="40" y="30190" fill="#cf7939">Nougatine</text><text x="40" y="30260" fill="#eefcfc">Nuage Bleu</text><text x="40" y="30330" fill="#cc7722">Ocre</text><text x="40" y="30400" fill="#dfaf2c">Ocre Jaune</text><text x="40" y="30470" fill="#dd985c">Ocre Rouge</text><text x="40" y="30540" fill="#ac5414">Ocre Terre de Sienne</text><text x="40" y="30610" fill="#c66218">Ocre Toscane</text><text x="40" y="30680" fill="#ff8cae">Oeillet de Poète Rose</text><text x="40" y="30750" fill="#708d23">Olive</text><text x="40" y="30820" fill="#c7c077">Olive Cassée</text><text x="40" y="30890" fill="#205f2e">Ombre Verte</text><text x="40" y="30960" fill="#f2ffff">Opalin</text><text x="40" y="31030" fill="#d2cb0f">Or</text><text x="40" y="31100" fill="#c56a5b">Or Rose</text><text x="40" y="31170" fill="#ed7f10">Orange</text><text x="40" y="31240" fill="#cc5500">Orange Brûlée</text><text x="40" y="31310" fill="#f78b13">Orange Fluo</text><text x="40" y="31380" fill="#ed7f10">Orangé</text><text x="40" y="31450" fill="#da70d6">Orchidée</text><text x="40" y="31520" fill="#fcd21c">Orpiment</text><text x="40" y="31590" fill="#fcd21c">Orpin de Perse</text><text x="40" y="31660" fill="#292107">Oscuro</text><text x="40" y="31730" fill="#ae7720">Osier</text><text x="40" y="31800" fill="#a26d20">Osier</text><text x="40" y="31870" fill="#fee347">Paille</text><text x="40" y="31940" fill="#ffefd5">Papaye</text><text x="40" y="32010" fill="#f27842">Papaye Orange</text><text x="40" y="32080" fill="#edd38c">Papier Bulle</text><text x="40" y="32150" fill="#cfa0e9">Parme</text><text x="40" y="32220" fill="#e3cbe3">Parme Clair</text><text x="40" y="32290" fill="#91283b">Passe-Velours</text><text x="40" y="32360" fill="#56739a">Pastel</text><text x="40" y="32430" fill="#857b61">Pavé Gris</text><text x="40" y="32500" fill="#ebb7af">Peau Rosée</text><text x="40" y="32570" fill="#ffdfd5">Peau de Pêche</text><text x="40" y="32640" fill="#d58490">Pelure d'Oignon</text><text x="40" y="32710" fill="#835b8b">Pensée</text><text x="40" y="32780" fill="#566a6a">Perle de Tahiti</text><text x="40" y="32850" fill="#ccccff">Pervenche</text><text x="40" y="32920" fill="#917b73">Petit Gris</text><text x="40" y="32990" fill="#d21035">Piment</text><text x="40" y="33060" fill="#cccccc">Pinchard</text><text x="40" y="33130" fill="#d2df84">Pistache</text><text x="40" y="33200" fill="#faf0c5">Platine</text><text x="40" y="33270" fill="#798081">Plomb</text><text x="40" y="33340" fill="#d9ebf1">Pluie d'Eté Bleue</text><text x="40" y="33410" fill="#fee7da">Plume Rose</text><text x="40" y="33480" fill="#b67823">Poil de Chameau</text><text x="40" y="33550" fill="#bcb4ac">Poivre Blanc</text><text x="40" y="33620" fill="#484848">Poivre Noir</text><text x="40" y="33690" fill="#da6783">Poivre Rose</text><text x="40" y="33760" fill="#c60800">Ponceau</text><text x="40" y="33830" fill="#f7a777">Poterie</text><text x="40" y="33900" fill="#f56600">Potiron</text><text x="40" y="33970" fill="#9e0e40">Pourpre</text><text x="40" y="34040" fill="#a77c49">Praliné</text><text x="40" y="34110" fill="#4ca66b">Prasin</text><text x="40" y="34180" fill="#811453">Prune</text><text x="40" y="34250" fill="#4e1609">Puce</text><text x="40" y="34320" fill="#fbbfc2">Pétale de Rose</text><text x="40" y="34390" fill="#fdbfb7">Pêche</text><text x="40" y="34460" fill="#ffe2e2">Quartz Rose</text><text x="40" y="34530" fill="#91283b">Queue-de-renard</text><text x="40" y="34600" fill="#c3b470">Queue-de-vache</text><text x="40" y="34670" fill="#72375d">Raisin</text><text x="40" y="34740" fill="#6e655c">Renne Gris</text><text x="40" y="34810" fill="#ea9cc4">Rhododendron Rose</text><text x="40" y="34880" fill="#fd6c9e">Rose</text><text x="40" y="34950" fill="#e68a8a">Rose Ancien</text><text x="40" y="35020" fill="#ffc9c9">Rose Aurore</text><text x="40" y="35090" fill="#ffcbd5">Rose Azalée</text><text x="40" y="35160" fill="#c4698f">Rose Balais</text><text x="40" y="35230" fill="#e02876">Rose Bengale</text><text x="40" y="35300" fill="#ffa4be">Rose Bombon</text><text x="40" y="35370" fill="#f9429e">Rose Bonbon</text><text x="40" y="35440" fill="#f8cac8">Rose Bruni</text><text x="40" y="35510" fill="#febfd2">Rose Dragée</text><text x="40" y="35580" fill="#fcb0b9">Rose Eglantine</text><text x="40" y="35650" fill="#ffded5">Rose Flamant</text><text x="40" y="35720" fill="#ff9191">Rose Fluo</text><text x="40" y="35790" fill="#ee546e">Rose Foncé</text><text x="40" y="35860" fill="#ba4a4a">Rose Framboise Ecrasée</text><text x="40" y="35930" fill="#fd3f92">Rose Fuchsia</text><text x="40" y="36000" fill="#f5adad">Rose Grenadine</text><text x="40" y="36070" fill="#f0ced4">Rose Guimauve</text><text x="40" y="36140" fill="#ff5773">Rose Géranium</text><text x="40" y="36210" fill="#e4a6ac">Rose Hortensia</text><text x="40" y="36280" fill="#d1286a">Rose Impatience</text><text x="40" y="36350" fill="#c54989">Rose Indien</text><text x="40" y="36420" fill="#9c2462">Rose Magenta</text><text x="40" y="36490" fill="#820043">Rose Magenta Foncé</text><text x="40" y="36560" fill="#997a8d">Rose Mountbatten</text><text x="40" y="36630" fill="#ffbdbd">Rose Pivoine</text><text x="40" y="36700" fill="#dfb3bb">Rose Poivré</text><text x="40" y="36770" fill="#e7a9ac">Rose Pompadour</text><text x="40" y="36840" fill="#ffdfd9">Rose Poudré</text><text x="40" y="36910" fill="#ff798c">Rose Pétunia</text><text x="40" y="36980" fill="#ff866a">Rose Thé</text><text x="40" y="37050" fill="#e8879b">Rose Trémière</text><text x="40" y="37120" fill="#fdb5b5">Rose Vif</text><text x="40" y="37190" fill="#fed7cc">Rose des Sables</text><text x="40" y="37260" fill="#cf7373">Roseraie</text><text x="40" y="37330" fill="#f3e1d7">Rosée des Prés</text><text x="40" y="37400" fill="#ff0000">Rouge</text><text x="40" y="37470" fill="#a91101">Rouge Andrinople</text><text x="40" y="37540" fill="#f7230c">Rouge Anglais</text><text x="40" y="37610" fill="#a5260a">Rouge Bismarck</text><text x="40" y="37680" fill="#6d071a">Rouge Bordeaux</text><text x="40" y="37750" fill="#6b0d0d">Rouge Bourgogne</text><text x="40" y="37820" fill="#ff5e4d">Rouge Capucine</text><text x="40" y="37890" fill="#b82010">Rouge Cardinal</text><text x="40" y="37960" fill="#960018">Rouge Carmin</text><text x="40" y="38030" fill="#bb0b0b">Rouge Cerise</text><text x="40" y="38100" fill="#db1702">Rouge Cinabre</text><text x="40" y="38170" fill="#ff7992">Rouge Clair</text><text x="40" y="38240" fill="#c60800">Rouge Coquelicot</text><text x="40" y="38310" fill="#e31d42">Rouge Ecarlate</text><text x="40" y="38380" fill="#bc2001">Rouge Ecrevisse</text><text x="40" y="38450" fill="#bf2d2d">Rouge Egyptien</text><text x="40" y="38520" fill="#fe1b00">Rouge Feu</text><text x="40" y="38590" fill="#bf3030">Rouge Fraise</text><text x="40" y="38660" fill="#c72c48">Rouge Framboise</text><text x="40" y="38730" fill="#e9383f">Rouge Grenadine</text><text x="40" y="38800" fill="#6e0b14">Rouge Grenat</text><text x="40" y="38870" fill="#cf0a1d">Rouge Groseille</text><text x="40" y="38940" fill="#bb051f">Rouge Japonais</text><text x="40" y="39010" fill="#b71f33">Rouge Laque de Chine</text><text x="40" y="39080" fill="#913546">Rouge Lie de Vin</text><text x="40" y="39150" fill="#c60800">Rouge Ponceau</text><text x="40" y="39220" fill="#b33b4b">Rouge Rubis</text><text x="40" y="39290" fill="#850606">Rouge Sang</text><text x="40" y="39360" fill="#de2916">Rouge Tomate</text><text x="40" y="39430" fill="#ae4a34">Rouge Tomette</text><text x="40" y="39500" fill="#e74967">Rouge Tulipe</text><text x="40" y="39570" fill="#a91101">Rouge Turc</text><text x="40" y="39640" fill="#db1702">Rouge Vermillon</text><text x="40" y="39710" fill="#fa3203">Rouge Vif</text><text x="40" y="39780" fill="#7b001b">Rouge Vin</text><text x="40" y="39850" fill="#d90115">Rouge d'Alizarine</text><text x="40" y="39920" fill="#a91101">Rouge d'Andrinople</text><text x="40" y="39990" fill="#ed0000">Rouge d'Aniline</text><text x="40" y="40060" fill="#f7230c">Rouge de Mars</text><text x="40" y="40130" fill="#a7132b">Rouge-Baiser</text><text x="40" y="40200" fill="#c71585">Rouge-Violet</text><text x="40" y="40270" fill="#985717">Rouille</text><text x="40" y="40340" fill="#ad4f09">Roux</text><text x="40" y="40410" fill="#2d241e">Réglisse</text><text x="40" y="40480" fill="#000000">Sable</text><text x="40" y="40550" fill="#f4bba9">Sable Rose</text><text x="40" y="40620" fill="#f3d617">Safran</text><text x="40" y="40690" fill="#0131b4">Safre</text><text x="40" y="40760" fill="#eccc9e">Sahara</text><text x="40" y="40830" fill="#730800">Sang de Bœuf</text><text x="40" y="40900" fill="#850606">Sanguine</text><text x="40" y="40970" fill="#0131b4">Saphir</text><text x="40" y="41040" fill="#008e8e">Sarcelle</text><text x="40" y="41110" fill="#f88e55">Saumon</text><text x="40" y="41180" fill="#e5ce97">Savane</text><text x="40" y="41250" fill="#d8bc9a">Seigle</text><text x="40" y="41320" fill="#8d4024">Senois</text><text x="40" y="41390" fill="#149414">Sinople</text><text x="40" y="41460" fill="#967656">Sisal</text><text x="40" y="41530" fill="#033990">Smalt</text><text x="40" y="41600" fill="#01d758">Smaragdin</text><text x="40" y="41670" fill="#ff7b4d">Soleil Couchant</text><text x="40" y="41740" fill="#ea8699">Sorbet Fraise</text><text x="40" y="41810" fill="#ffff6b">Soufre</text><text x="40" y="41880" fill="#9e9e9e">Souris</text><text x="40" y="41950" fill="#ae8964">Sépia</text><text x="40" y="42020" fill="#9f551e">Tabac</text><text x="40" y="42090" fill="#a75502">Tanné</text><text x="40" y="42160" fill="#463f32">Taupe</text><text x="40" y="42230" fill="#a68881">Taupe Clair</text><text x="40" y="42300" fill="#7d5d57">Taupe Foncé</text><text x="40" y="42370" fill="#492a13">Teck</text><text x="40" y="42440" fill="#cb9051">Teddy</text><text x="40" y="42510" fill="#657f7f">Tempête</text><text x="40" y="42580" fill="#e27323">Terracotta</text><text x="40" y="42650" fill="#d98978">Terre Cuite Rosé</text><text x="40" y="42720" fill="#a14b51">Terre Rose</text><text x="40" y="42790" fill="#a98204">Terre d'Ocre</text><text x="40" y="42860" fill="#926d27">Terre d'Ombre</text><text x="40" y="42930" fill="#8e5434">Terre de Sienne</text><text x="40" y="43000" fill="#7bac94">Thym Vert</text><text x="40" y="43070" fill="#dbbe7f">Tisane Verte</text><text x="40" y="43140" fill="#de2916">Tomate</text><text x="40" y="43210" fill="#faea73">Topaze</text><text x="40" y="43280" fill="#bbacac">Tourterelle</text><text x="40" y="43350" fill="#bc5544">Tuile</text><text x="40" y="43420" fill="#25fde9">Turquoise</text><text x="40" y="43490" fill="#3eb6a1">Vallée Verte</text><text x="40" y="43560" fill="#e1ce9a">Vanille</text><text x="40" y="43630" fill="#fad396">Vent de Sable Orangé</text><text x="40" y="43700" fill="#e9c9b1">Ventre de Biche</text><text x="40" y="43770" fill="#ff0921">Vermeil</text><text x="40" y="43840" fill="#db1702">Vermillon</text><text x="40" y="43910" fill="#00ff00">Vert</text><text x="40" y="43980" fill="#7fdd4c">Vert Absinthe</text><text x="40" y="44050" fill="#3d9384">Vert Acidulé</text><text x="40" y="44120" fill="#313919">Vert Algue</text><text x="40" y="44190" fill="#82c46c">Vert Amande</text><text x="40" y="44260" fill="#477759">Vert Amandier</text><text x="40" y="44330" fill="#18391e">Vert Anglais</text><text x="40" y="44400" fill="#9fe855">Vert Anis</text><text x="40" y="44470" fill="#898a58">Vert Artichaut</text><text x="40" y="44540" fill="#568203">Vert Avocat</text><text x="40" y="44610" fill="#006442">Vert Bambou</text><text x="40" y="44680" fill="#587141">Vert Basilic</text><text x="40" y="44750" fill="#096a09">Vert Bouteille</text><text x="40" y="44820" fill="#47a72f">Vert Brin d'Herbe</text><text x="40" y="44890" fill="#aa8f56">Vert Bronze</text><text x="40" y="44960" fill="#bd9b51">Vert Bronze Clair</text><text x="40" y="45030" fill="#405230">Vert Buis</text><text x="40" y="45100" fill="#888d33">Vert Cactus</text><text x="40" y="45170" fill="#559392">Vert Canard</text><text x="40" y="45240" fill="#ccb784">Vert Cardamome</text><text x="40" y="45310" fill="#889268">Vert Cendré</text><text x="40" y="45380" fill="#c2f732">Vert Chartreuse</text><text x="40" y="45450" fill="#347d75">Vert Chinois</text><text x="40" y="45520" fill="#8d784b">Vert Chêne Liège</text><text x="40" y="45590" fill="#90c0b4">Vert Clair</text><text x="40" y="45660" fill="#ccd9b1">Vert Coeur de Laitue</text><text x="40" y="45730" fill="#a7ae38">Vert Criquet</text><text x="40" y="45800" fill="#2c6a45">Vert Cyprès</text><text x="40" y="45870" fill="#83a697">Vert Céladon</text><text x="40" y="45940" fill="#e4ecd4">Vert Céleri</text><text x="40" y="46010" fill="#bcb34c">Vert Doré</text><text x="40" y="46080" fill="#01d758">Vert Emeraude</text><text x="40" y="46150" fill="#00561b">Vert Empire</text><text x="40" y="46220" fill="#508b7d">Vert Epicéa</text><text x="40" y="46290" fill="#175732">Vert Epinard</text><text x="40" y="46360" fill="#aebf79">Vert Estragon</text><text x="40" y="46430" fill="#396f52">Vert Etang</text><text x="40" y="46500" fill="#4d8361">Vert Eucalyptus</text><text x="40" y="46570" fill="#8da675">Vert Fenouil</text><text x="40" y="46640" fill="#5e6b47">Vert Figuier</text><text x="40" y="46710" fill="#174923">Vert Forêt Noire</text><text x="40" y="46780" fill="#69885a">Vert Fougère</text><text x="40" y="46850" fill="#056517">Vert Fruits Confits</text><text x="40" y="46920" fill="#c4cdac">Vert Galet</text><text x="40" y="46990" fill="#3a9d23">Vert Gazon</text><text x="40" y="47060" fill="#6fae9f">Vert Glacier</text><text x="40" y="47130" fill="#189065">Vert Golf</text><text x="40" y="47200" fill="#3a9d23">Vert Herbe</text><text x="40" y="47270" fill="#b89d64">Vert Herbes de Provence</text><text x="40" y="47340" fill="#00561b">Vert Impérial</text><text x="40" y="47410" fill="#87e990">Vert Jade</text><text x="40" y="47480" fill="#798933">Vert Kaki</text><text x="40" y="47550" fill="#85c17e">Vert Lichen</text><text x="40" y="47620" fill="#044d33">Vert Lierre</text><text x="40" y="47690" fill="#9efd38">Vert Lime</text><text x="40" y="47760" fill="#1fa055">Vert Malachite</text><text x="40" y="47830" fill="#a7cdaf">Vert Malachite Clair</text><text x="40" y="47900" fill="#16b84e">Vert Menthe</text><text x="40" y="47970" fill="#54f98d">Vert Menthe à l'Eau</text><text x="40" y="48040" fill="#596643">Vert Militaire</text><text x="40" y="48110" fill="#679f5a">Vert Mousse</text><text x="40" y="48180" fill="#72843c">Vert Mousse Dorée</text><text x="40" y="48250" fill="#4c5826">Vert Mousse de Chêne</text><text x="40" y="48320" fill="#386f48">Vert Mélèze</text><text x="40" y="48390" fill="#a6c298">Vert Nil</text><text x="40" y="48460" fill="#156f49">Vert Noël</text><text x="40" y="48530" fill="#708d23">Vert Olive</text><text x="40" y="48600" fill="#5f6648">Vert Olivier</text><text x="40" y="48670" fill="#97dfc6">Vert Opaline</text><text x="40" y="48740" fill="#3af24b">Vert Perroquet</text><text x="40" y="48810" fill="#628a28">Vert Perruche</text><text x="40" y="48880" fill="#c4decc">Vert Peuplier</text><text x="40" y="48950" fill="#01796f">Vert Pin</text><text x="40" y="49020" fill="#338362">Vert Pinède</text><text x="40" y="49090" fill="#bef574">Vert Pistache</text><text x="40" y="49160" fill="#4ca66b">Vert Poireau</text><text x="40" y="49230" fill="#34c924">Vert Pomme</text><text x="40" y="49300" fill="#d7edcc">Vert Pousse de Bambou</text><text x="40" y="49370" fill="#57d53b">Vert Prairie</text><text x="40" y="49440" fill="#4ca66b">Vert Prasin</text><text x="40" y="49510" fill="#00fe7e">Vert Printemps</text><text x="40" y="49580" fill="#57d53b">Vert Prés</text><text x="40" y="49650" fill="#a2d6ad">Vert Pâle</text><text x="40" y="49720" fill="#88ba91">Vert Rizière</text><text x="40" y="49790" fill="#728256">Vert Romarin</text><text x="40" y="49860" fill="#b9b982">Vert Résine</text><text x="40" y="49930" fill="#095228">Vert Sapin</text><text x="40" y="50000" fill="#689d71">Vert Sauge</text><text x="40" y="50070" fill="#71935c">Vert Scarabée</text><text x="40" y="50140" fill="#65a57d">Vert Serpent</text><text x="40" y="50210" fill="#01d758">Vert Smaragdin</text><text x="40" y="50280" fill="#424d21">Vert Sous-Bois</text><text x="40" y="50350" fill="#bfa671">Vert Steppe</text><text x="40" y="50420" fill="#b9d7c0">Vert Tendre</text><text x="40" y="50490" fill="#a5d152">Vert Tilleul</text><text x="40" y="50560" fill="#969e7e">Vert Treillis</text><text x="40" y="50630" fill="#1ffed8">Vert Turquoise</text><text x="40" y="50700" fill="#9ca482">Vert Tweed</text><text x="40" y="50770" fill="#5a6521">Vert Véronèse</text><text x="40" y="50840" fill="#b0f2b6">Vert d'Eau</text><text x="40" y="50910" fill="#18391e">Vert de Chrome</text><text x="40" y="50980" fill="#95a595">Vert de Gris</text><text x="40" y="51050" fill="#1b4f08">Vert de Hooker</text><text x="40" y="51120" fill="#22780f">Vert de Vessie</text><text x="40" y="51190" fill="#a6a75d">Vert du Marais</text><text x="40" y="51260" fill="#406a3a">Vert du Tyrol</text><text x="40" y="51330" fill="#738b5b">Verveine</text><text x="40" y="51400" fill="#e24874">Verveine Rose</text><text x="40" y="51470" fill="#ce9124">Vieil or</text><text x="40" y="51540" fill="#e2a099">Vieux Rose</text><text x="40" y="51610" fill="#c96b70">Vin de Framboise</text><text x="40" y="51680" fill="#8806ce">Violet</text><text x="40" y="51750" fill="#633666">Violet Foncé</text><text x="40" y="51820" fill="#dbb3cb">Violet Pastel</text><text x="40" y="51890" fill="#946083">Violet Pourpre</text><text x="40" y="51960" fill="#723e64">Violet d'Evêque</text><text x="40" y="52030" fill="#803a6b">Violette</text><text x="40" y="52100" fill="#a10684">Violine</text><text x="40" y="52170" fill="#40826d">Viride</text><text x="40" y="52240" fill="#653919">Vison</text><text x="40" y="52310" fill="#6c0277">Zinzolin</text>
</svg>