<svg xmlns="http://www.w3.org/2000/svg" viewBox="0 0 600 28570">
  <defs>
    <style type="text/css">
      @import url('https://rsms.me/inter/inter.css');
      text {
        font-family: Inter, -apple-system, BlinkMacSystemFont, "Segoe UI", Roboto, Helvetica, Arial, sans-serif, "Apple Color Emoji", "Segoe UI Emoji", "Segoe UI Symbol";
        font-size: 40px;
        font-weight: 900;
      }
    </style>
  </defs>
  <rect fill="#202124" x="0" y="0" width="600" height="28570"/>
  <text x="40" y="90" fill="#e67e30">abricot</text><text x="40" y="160" fill="#7fdd4c">absinthe</text><text x="40" y="230" fill="#88421d">acajou</text><text x="40" y="300" fill="#79f8f8">aigue-marine</text><text x="40" y="370" fill="#000000">aile de corbeau</text><text x="40" y="440" fill="#fefefe">albâtre</text><text x="40" y="510" fill="#a76726">alezan</text><text x="40" y="580" fill="#82c46c">amande</text><text x="40" y="650" fill="#91283b">amarante</text><text x="40" y="720" fill="#f0c300">ambre jaune</text><text x="40" y="790" fill="#ad390e">ambre rouge</text><text x="40" y="860" fill="#884da7">améthyste</text><text x="40" y="930" fill="#303030">anthracite</text><text x="40" y="1000" fill="#ad4f09">aquilain</text><text x="40" y="1070" fill="#5a5e6b">ardoise</text><text x="40" y="1140" fill="#cecece">argent</text><text x="40" y="1210" fill="#efefef">argile</text><text x="40" y="1280" fill="#5ba05b">asperge</text><text x="40" y="1350" fill="#370028">aubergine</text><text x="40" y="1420" fill="#9d3e0c">auburn</text><text x="40" y="1490" fill="#ffcb60">aurore</text><text x="40" y="1560" fill="#568203">avocat</text><text x="40" y="1630" fill="#1e7fcb">azur</text><text x="40" y="1700" fill="#a9eafe">azurin</text><text x="40" y="1770" fill="#ae642d">baillet</text><text x="40" y="1840" fill="#d1b606">banane</text><text x="40" y="1910" fill="#8b6c42">basané</text><text x="40" y="1980" fill="#c8ad7f">beige</text><text x="40" y="2050" fill="#afa77b">beigeasse</text><text x="40" y="2120" fill="#f0e36b">beurre</text><text x="40" y="2190" fill="#fff48d">beurre frais</text><text x="40" y="2260" fill="#f1e2be">bis</text><text x="40" y="2330" fill="#ffe4c4">bisque</text><text x="40" y="2400" fill="#856d4d">bistre</text><text x="40" y="2470" fill="#4e3d28">bitume</text><text x="40" y="2540" fill="#ffffff">blanc</text><text x="40" y="2610" fill="#fefee2">blanc cassé</text><text x="40" y="2680" fill="#fdf1b8">blanc crème</text><text x="40" y="2750" fill="#fefdf0">blanc de Meudon</text><text x="40" y="2820" fill="#fefdf0">blanc de Troyes</text><text x="40" y="2890" fill="#fefefe">blanc de céruse</text><text x="40" y="2960" fill="#fbfcfa">blanc de lait</text><text x="40" y="3030" fill="#fefefe">blanc de plomb</text><text x="40" y="3100" fill="#f6fefe">blanc de zinc</text><text x="40" y="3170" fill="#fefdf0">blanc d’Espagne</text><text x="40" y="3240" fill="#fefefe">blanc d’argent</text><text x="40" y="3310" fill="#f4fefe">blanc lunaire</text><text x="40" y="3380" fill="#fefefe">blanc-bleu</text><text x="40" y="3450" fill="#5b3c11">blet</text><text x="40" y="3520" fill="#0000ff">bleu</text><text x="40" y="3590" fill="#318ce7">bleu France</text><text x="40" y="3660" fill="#21177d">bleu Klein</text><text x="40" y="3730" fill="#6050dc">bleu Majorelle</text><text x="40" y="3800" fill="#3a8eba">bleu acier</text><text x="40" y="3870" fill="#686f8c">bleu ardoise</text><text x="40" y="3940" fill="#1e7fcb">bleu azur</text><text x="40" y="4010" fill="#5472ae">bleu barbeau</text><text x="40" y="4080" fill="#5472ae">bleu bleuet</text><text x="40" y="4150" fill="#048b9a">bleu canard</text><text x="40" y="4220" fill="#8ea2c6">bleu charrette</text><text x="40" y="4290" fill="#8ea2c6">bleu charron</text><text x="40" y="4360" fill="#77b5fe">bleu ciel</text><text x="40" y="4430" fill="#22427c">bleu cobalt</text><text x="40" y="4500" fill="#26c4ec">bleu céleste</text><text x="40" y="4570" fill="#357ab7">bleu cérule</text><text x="40" y="4640" fill="#357ab7">bleu céruléen</text><text x="40" y="4710" fill="#24445c">bleu de Berlin</text><text x="40" y="4780" fill="#318ce7">bleu de France</text><text x="40" y="4850" fill="#24445c">bleu de Prusse</text><text x="40" y="4920" fill="#22427c">bleu de cobalt</text><text x="40" y="4990" fill="#03366">bleu de minuit</text><text x="40" y="5060" fill="#00cccb">bleu des mers du sud</text><text x="40" y="5130" fill="#dff2ff">bleu dragée</text><text x="40" y="5200" fill="#24445c">bleu d’Anvers</text><text x="40" y="5270" fill="#bbd2e1">bleu fumée</text><text x="40" y="5340" fill="#80d0d0">bleu givré</text><text x="40" y="5410" fill="#56739a">bleu guède</text><text x="40" y="5480" fill="#24445c">bleu hussard</text><text x="40" y="5550" fill="#9683ec">bleu lavande</text><text x="40" y="5620" fill="#03224c">bleu marine</text><text x="40" y="5690" fill="#24445c">bleu minéral</text><text x="40" y="5760" fill="#0f056b">bleu nuit</text><text x="40" y="5830" fill="#1b019b">bleu outremer</text><text x="40" y="5900" fill="#067790">bleu paon</text><text x="40" y="5970" fill="#660ff">bleu persan</text><text x="40" y="6040" fill="#1d4851">bleu pétrole</text><text x="40" y="6110" fill="#318ce7">bleu roi</text><text x="40" y="6180" fill="#318ce7">bleu roy</text><text x="40" y="6250" fill="#0131b4">bleu saphir</text><text x="40" y="6320" fill="#008e8e">bleu sarcelle</text><text x="40" y="6390" fill="#425b8a">bleu turquin</text><text x="40" y="6460" fill="#25fde9">bleu turquoise</text><text x="40" y="6530" fill="#2c75ff">bleu électrique</text><text x="40" y="6600" fill="#e2bc74">blond</text><text x="40" y="6670" fill="#e7a854">blond vénitien</text><text x="40" y="6740" fill="#e8d630">blé</text><text x="40" y="6810" fill="#6d071a">bordeaux</text><text x="40" y="6880" fill="#6b0d0d">bourgogne</text><text x="40" y="6950" fill="#fcdc12">bouton d’or</text><text x="40" y="7020" fill="#842e1b">brique</text><text x="40" y="7090" fill="#614e1a">bronze</text><text x="40" y="7160" fill="#3f2204">brou de noix</text><text x="40" y="7230" fill="#5b3c11">brun</text><text x="40" y="7300" fill="#6b5731">bureau</text><text x="40" y="7370" fill="#cdcd0d">caca d’oie</text><text x="40" y="7440" fill="#614b3a">cacao</text><text x="40" y="7510" fill="#2f1b0c">cachou</text><text x="40" y="7580" fill="#462e01">café</text><text x="40" y="7650" fill="#785e2f">café au lait</text><text x="40" y="7720" fill="#7e5835">cannelle</text><text x="40" y="7790" fill="#ff5e4d">capucine</text><text x="40" y="7860" fill="#7e3300">caramel</text><text x="40" y="7930" fill="#960018">carmin</text><text x="40" y="8000" fill="#411f20">carmélite</text><text x="40" y="8070" fill="#fec3ac">carnation</text><text x="40" y="8140" fill="#fec3ac">carné</text><text x="40" y="8210" fill="#f4661b">carotte</text><text x="40" y="8280" fill="#3a020d">cassis</text><text x="40" y="8350" fill="#bb0b0b">cerise</text><text x="40" y="8420" fill="#fec3ac">chair</text><text x="40" y="8490" fill="#d0c07a">chamois</text><text x="40" y="8560" fill="#fbf2b7">champagne</text><text x="40" y="8630" fill="#000010">charbonneux</text><text x="40" y="8700" fill="#85530f">chaudron</text><text x="40" y="8770" fill="#fefefe">chenu</text><text x="40" y="8840" fill="#5a3a22">chocolat</text><text x="40" y="8910" fill="#806d5a">châtaigne</text><text x="40" y="8980" fill="#8b6c42">châtain</text><text x="40" y="9050" fill="#db1702">cinabre</text><text x="40" y="9120" fill="#f7ff3c">citron</text><text x="40" y="9190" fill="#df6d14">citrouille</text><text x="40" y="9260" fill="#b9b276">clarissimo</text><text x="40" y="9330" fill="#845a3b">claro</text><text x="40" y="9400" fill="#ba9b61">claro claro</text><text x="40" y="9470" fill="#6a455d">colombin</text><text x="40" y="9540" fill="#703516">colorado</text><text x="40" y="9610" fill="#6a4b21">colorado claro</text><text x="40" y="9680" fill="#c60800">coquelicot</text><text x="40" y="9750" fill="#fde9e0">coquille d’œuf</text><text x="40" y="9820" fill="#e73e01">corail</text><text x="40" y="9890" fill="#dc143c">cramoisi</text><text x="40" y="9960" fill="#fdf1b8">crème</text><text x="40" y="10030" fill="#fee7f0">cuisse de nymphe</text><text x="40" y="10100" fill="#b36700">cuivre</text><text x="40" y="10170" fill="#2bfafa">cyan</text><text x="40" y="10240" fill="#26c4ec">cæruléum</text><text x="40" y="10310" fill="#357ab7">céruléen</text><text x="40" y="10380" fill="#1560bd">denim</text><text x="40" y="10450" fill="#ba9b61">double claro</text><text x="40" y="10520" fill="#ffffd4">d’ivoire</text><text x="40" y="10590" fill="#ad4f09">fauve</text><text x="40" y="10660" fill="#848484">fer</text><text x="40" y="10730" fill="#ff4901">feu vif</text><text x="40" y="10800" fill="#99512b">feuille-morte</text><text x="40" y="10870" fill="#e6e697">flave</text><text x="40" y="10940" fill="#ffff6b">fleur de soufre</text><text x="40" y="11010" fill="#bf3030">fraise</text><text x="40" y="11080" fill="#a42424">fraise écrasée</text><text x="40" y="11150" fill="#c72c48">framboise</text><text x="40" y="11220" fill="#fd3f92">fuchsia</text><text x="40" y="11290" fill="#ee1010">garance</text><text x="40" y="11360" fill="#649b88">glauque</text><text x="40" y="11430" fill="#c9a0dc">glycine</text><text x="40" y="11500" fill="#e9383f">grenadine</text><text x="40" y="11570" fill="#6e0b14">grenat</text><text x="40" y="11640" fill="#333333">gris</text><text x="40" y="11710" fill="#677179">gris de Payne</text><text x="40" y="11780" fill="#d2caec">gris de lin</text><text x="40" y="11850" fill="#685e43">gris de maure</text><text x="40" y="11920" fill="#7f7f7f">gris fer</text><text x="40" y="11990" fill="#bbd2e1">gris fumée</text><text x="40" y="12060" fill="#cecece">gris perle</text><text x="40" y="12130" fill="#798081">gris plomb</text><text x="40" y="12200" fill="#9e9e9e">gris souris</text><text x="40" y="12270" fill="#463f32">gris taupe</text><text x="40" y="12340" fill="#c1bfb1">gris tourdille</text><text x="40" y="12410" fill="#cf0a1d">groseille</text><text x="40" y="12480" fill="#bbae98">grège</text><text x="40" y="12550" fill="#e21313">gueules</text><text x="40" y="12620" fill="#947f60">havane</text><text x="40" y="12690" fill="#df73ff">héliotrope</text><text x="40" y="12760" fill="#fe96a0">incarnadin</text><text x="40" y="12830" fill="#ff6f7d">incarnat</text><text x="40" y="12900" fill="#791cf8">indigo</text><text x="40" y="12970" fill="#785e2f">isabelle</text><text x="40" y="13040" fill="#ffffd4">ivoire</text><text x="40" y="13110" fill="#87e990">jade</text><text x="40" y="13180" fill="#000000">jais</text><text x="40" y="13250" fill="#ffff00">jaune</text><text x="40" y="13320" fill="#efd242">jaune auréolin</text><text x="40" y="13390" fill="#d1b606">jaune banane</text><text x="40" y="13460" fill="#f6dc12">jaune bouton d’or</text><text x="40" y="13530" fill="#e7f00d">jaune canari</text><text x="40" y="13600" fill="#f7ff3c">jaune citron</text><text x="40" y="13670" fill="#eed153">jaune de Mars</text><text x="40" y="13740" fill="#fff0bc">jaune de Naples</text><text x="40" y="13810" fill="#edff0c">jaune de chrome</text><text x="40" y="13880" fill="#efd807">jaune d’or</text><text x="40" y="13950" fill="#ffff6b">jaune fleur de soufre</text><text x="40" y="14020" fill="#ffe436">jaune impérial</text><text x="40" y="14090" fill="#ffde75">jaune maïs</text><text x="40" y="14160" fill="#fef86c">jaune mimosa</text><text x="40" y="14230" fill="#c7cf00">jaune moutarde</text><text x="40" y="14300" fill="#f7e269">jaune nankin</text><text x="40" y="14370" fill="#fee347">jaune paille</text><text x="40" y="14440" fill="#f7e35f">jaune poussin</text><text x="40" y="14510" fill="#ffff6b">jaune soufre</text><text x="40" y="14580" fill="#94812b">kaki</text><text x="40" y="14650" fill="#26619c">lapis-lazuli</text><text x="40" y="14720" fill="#8f5922">lavallière</text><text x="40" y="14790" fill="#9683ec">lavande</text><text x="40" y="14860" fill="#ac1e44">lie-de-vin</text><text x="40" y="14930" fill="#b666d2">lilas</text><text x="40" y="15000" fill="#faf0e6">lin</text><text x="40" y="15070" fill="#372f25">maduro</text><text x="40" y="15140" fill="#5b3c11">maduro colorado</text><text x="40" y="15210" fill="#ff00ff">magenta</text><text x="40" y="15280" fill="#1fa055">malachite</text><text x="40" y="15350" fill="#fea347">mandarine</text><text x="40" y="15420" fill="#03224c">marine</text><text x="40" y="15490" fill="#582900">marron</text><text x="40" y="15560" fill="#b3b191">mastic</text><text x="40" y="15630" fill="#d473d4">mauve</text><text x="40" y="15700" fill="#ffde75">maïs</text><text x="40" y="15770" fill="#de9816">melon</text><text x="40" y="15840" fill="#16b84e">menthe</text><text x="40" y="15910" fill="#54f98d">menthe à l’eau</text><text x="40" y="15980" fill="#dab30a">miel</text><text x="40" y="16050" fill="#87591a">mordoré</text><text x="40" y="16120" fill="#000000">moreau</text><text x="40" y="16190" fill="#c7cf00">moutarde</text><text x="40" y="16260" fill="#fc5d5d">nacarat</text><text x="40" y="16330" fill="#f7e269">nankin</text><text x="40" y="16400" fill="#fefefe">neige</text><text x="40" y="16470" fill="#000000">noir</text><text x="40" y="16540" fill="#000000">noir animal</text><text x="40" y="16610" fill="#000010">noir charbon</text><text x="40" y="16680" fill="#130e0a">noir de carbone</text><text x="40" y="16750" fill="#130e0a">noir de fumée</text><text x="40" y="16820" fill="#000000">noir de jais</text><text x="40" y="16890" fill="#120d16">noir d’aniline</text><text x="40" y="16960" fill="#000000">noir d’encre</text><text x="40" y="17030" fill="#000000">noir d’ivoire</text><text x="40" y="17100" fill="#2f1e0e">noiraud</text><text x="40" y="17170" fill="#955628">noisette</text><text x="40" y="17240" fill="#cc7722">ocre</text><text x="40" y="17310" fill="#dfaf2c">ocre jaune</text><text x="40" y="17380" fill="#dd985c">ocre rouge</text><text x="40" y="17450" fill="#708d23">olive</text><text x="40" y="17520" fill="#f2ffff">opalin</text><text x="40" y="17590" fill="#d2cb0f">or</text><text x="40" y="17660" fill="#ed7f10">orange</text><text x="40" y="17730" fill="#cc550">orange brûlée</text><text x="40" y="17800" fill="#ed7f10">orangé</text><text x="40" y="17870" fill="#da70d6">orchidée</text><text x="40" y="17940" fill="#fcd21c">orpiment</text><text x="40" y="18010" fill="#fcd21c">orpin de Perse</text><text x="40" y="18080" fill="#292107">oscuro</text><text x="40" y="18150" fill="#fee347">paille</text><text x="40" y="18220" fill="#ffefd5">papaye</text><text x="40" y="18290" fill="#edd38c">papier bulle</text><text x="40" y="18360" fill="#cfa0e9">parme</text><text x="40" y="18430" fill="#91283b">passe-velours</text><text x="40" y="18500" fill="#56739a">pastel</text><text x="40" y="18570" fill="#d58490">pelure d’oignon</text><text x="40" y="18640" fill="#ccccff">pervenche</text><text x="40" y="18710" fill="#cccccc">pinchard</text><text x="40" y="18780" fill="#d2df84">pistache</text><text x="40" y="18850" fill="#faf0c5">platine</text><text x="40" y="18920" fill="#798081">plomb</text><text x="40" y="18990" fill="#b67823">poil de chameau</text><text x="40" y="19060" fill="#c60800">ponceau</text><text x="40" y="19130" fill="#f56600">potiron</text><text x="40" y="19200" fill="#9e0e40">pourpre</text><text x="40" y="19270" fill="#4ca66b">prasin</text><text x="40" y="19340" fill="#811453">prune</text><text x="40" y="19410" fill="#4e1609">puce</text><text x="40" y="19480" fill="#fdbfb7">pêche</text><text x="40" y="19550" fill="#91283b">queue-de-renard</text><text x="40" y="19620" fill="#c3b470">queue-de-vache</text><text x="40" y="19690" fill="#fd6c9e">rose</text><text x="40" y="19760" fill="#997a8d">rose Mountbatten</text><text x="40" y="19830" fill="#c4698f">rose balais</text><text x="40" y="19900" fill="#f9429e">rose bonbon</text><text x="40" y="19970" fill="#febfd2">rose dragée</text><text x="40" y="20040" fill="#fd3f92">rose fuchsia</text><text x="40" y="20110" fill="#ff866a">rose thé</text><text x="40" y="20180" fill="#ff0000">rouge</text><text x="40" y="20250" fill="#a91101">rouge Andrinople</text><text x="40" y="20320" fill="#a5260a">rouge Bismarck</text><text x="40" y="20390" fill="#f7230c">rouge anglais</text><text x="40" y="20460" fill="#6d071a">rouge bordeaux</text><text x="40" y="20530" fill="#6b0d0d">rouge bourgogne</text><text x="40" y="20600" fill="#ff5e4d">rouge capucine</text><text x="40" y="20670" fill="#b82010">rouge cardinal</text><text x="40" y="20740" fill="#960018">rouge carmin</text><text x="40" y="20810" fill="#bb0b0b">rouge cerise</text><text x="40" y="20880" fill="#db1702">rouge cinabre</text><text x="40" y="20950" fill="#c60800">rouge coquelicot</text><text x="40" y="21020" fill="#f7230c">rouge de Mars</text><text x="40" y="21090" fill="#a91101">rouge d’Andrinople</text><text x="40" y="21160" fill="#d90115">rouge d’alizarine</text><text x="40" y="21230" fill="#ed0000">rouge d’aniline</text><text x="40" y="21300" fill="#fe1b00">rouge feu</text><text x="40" y="21370" fill="#bf3030">rouge fraise</text><text x="40" y="21440" fill="#c72c48">rouge framboise</text><text x="40" y="21510" fill="#e9383f">rouge grenadine</text><text x="40" y="21580" fill="#6e0b14">rouge grenat</text><text x="40" y="21650" fill="#cf0a1d">rouge groseille</text><text x="40" y="21720" fill="#c60800">rouge ponceau</text><text x="40" y="21790" fill="#850606">rouge sang</text><text x="40" y="21860" fill="#de2916">rouge tomate</text><text x="40" y="21930" fill="#ae4a34">rouge tomette</text><text x="40" y="22000" fill="#a91101">rouge turc</text><text x="40" y="22070" fill="#db1702">rouge vermillon</text><text x="40" y="22140" fill="#bc2001">rouge écrevisse</text><text x="40" y="22210" fill="#c71585">rouge-violet</text><text x="40" y="22280" fill="#985717">rouille</text><text x="40" y="22350" fill="#ad4f09">roux</text><text x="40" y="22420" fill="#2d241e">réglisse</text><text x="40" y="22490" fill="#000000">sable</text><text x="40" y="22560" fill="#f3d617">safran</text><text x="40" y="22630" fill="#0131b4">safre</text><text x="40" y="22700" fill="#730800">sang de bœuf</text><text x="40" y="22770" fill="#850606">sanguine</text><text x="40" y="22840" fill="#0131b4">saphir</text><text x="40" y="22910" fill="#008e8e">sarcelle</text><text x="40" y="22980" fill="#f88e55">saumon</text><text x="40" y="23050" fill="#8d4024">senois</text><text x="40" y="23120" fill="#149414">sinople</text><text x="40" y="23190" fill="#03399">smalt</text><text x="40" y="23260" fill="#01d758">smaragdin</text><text x="40" y="23330" fill="#ffff6b">soufre</text><text x="40" y="23400" fill="#9e9e9e">souris</text><text x="40" y="23470" fill="#ae8964">sépia</text><text x="40" y="23540" fill="#9f551e">tabac</text><text x="40" y="23610" fill="#a75502">tanné</text><text x="40" y="23680" fill="#463f32">taupe</text><text x="40" y="23750" fill="#8e5434">terre de Sienne</text><text x="40" y="23820" fill="#926d27">terre d’ombre</text><text x="40" y="23890" fill="#de2916">tomate</text><text x="40" y="23960" fill="#faea73">topaze</text><text x="40" y="24030" fill="#bbacac">tourterelle</text><text x="40" y="24100" fill="#25fde9">turquoise</text><text x="40" y="24170" fill="#e1ce9a">vanille</text><text x="40" y="24240" fill="#e9c9b1">ventre de biche</text><text x="40" y="24310" fill="#ff0921">vermeil</text><text x="40" y="24380" fill="#db1702">vermillon</text><text x="40" y="24450" fill="#00ff00">vert</text><text x="40" y="24520" fill="#5a6521">vert Véronèse</text><text x="40" y="24590" fill="#7fdd4c">vert absinthe</text><text x="40" y="24660" fill="#82c46c">vert amande</text><text x="40" y="24730" fill="#18391e">vert anglais</text><text x="40" y="24800" fill="#9fe855">vert anis</text><text x="40" y="24870" fill="#568203">vert avocat</text><text x="40" y="24940" fill="#006442">vert bambou</text><text x="40" y="25010" fill="#096a09">vert bouteille</text><text x="40" y="25080" fill="#c2f732">vert chartreuse</text><text x="40" y="25150" fill="#83a697">vert céladon</text><text x="40" y="25220" fill="#1b4f08">vert de Hooker</text><text x="40" y="25290" fill="#18391e">vert de chrome</text><text x="40" y="25360" fill="#95a595">vert de gris</text><text x="40" y="25430" fill="#22780f">vert de vessie</text><text x="40" y="25500" fill="#b0f2b6">vert d’eau</text><text x="40" y="25570" fill="#00561b">vert empire</text><text x="40" y="25640" fill="#3a9d23">vert gazon</text><text x="40" y="25710" fill="#3a9d23">vert herbe</text><text x="40" y="25780" fill="#00561b">vert impérial</text><text x="40" y="25850" fill="#87e990">vert jade</text><text x="40" y="25920" fill="#798933">vert kaki</text><text x="40" y="25990" fill="#85c17e">vert lichen</text><text x="40" y="26060" fill="#9efd38">vert lime</text><text x="40" y="26130" fill="#1fa055">vert malachite</text><text x="40" y="26200" fill="#16b84e">vert menthe</text><text x="40" y="26270" fill="#54f98d">vert menthe à l’eau</text><text x="40" y="26340" fill="#596643">vert militaire</text><text x="40" y="26410" fill="#679f5a">vert mousse</text><text x="40" y="26480" fill="#386f48">vert mélèze</text><text x="40" y="26550" fill="#708d23">vert olive</text><text x="40" y="26620" fill="#97dfc6">vert opaline</text><text x="40" y="26690" fill="#3af24b">vert perroquet</text><text x="40" y="26760" fill="#01796f">vert pin</text><text x="40" y="26830" fill="#bef574">vert pistache</text><text x="40" y="26900" fill="#4ca66b">vert poireau</text><text x="40" y="26970" fill="#34c924">vert pomme</text><text x="40" y="27040" fill="#57d53b">vert prairie</text><text x="40" y="27110" fill="#4ca66b">vert prasin</text><text x="40" y="27180" fill="#00fe7e">vert printemps</text><text x="40" y="27250" fill="#57d53b">vert prés</text><text x="40" y="27320" fill="#095228">vert sapin</text><text x="40" y="27390" fill="#689d71">vert sauge</text><text x="40" y="27460" fill="#01d758">vert smaragdin</text><text x="40" y="27530" fill="#a5d152">vert tilleul</text><text x="40" y="27600" fill="#1ffed8">vert turquoise</text><text x="40" y="27670" fill="#01d758">vert émeraude</text><text x="40" y="27740" fill="#175732">vert épinard</text><text x="40" y="27810" fill="#8806ce">violet</text><text x="40" y="27880" fill="#723e64">violet d’évêque</text><text x="40" y="27950" fill="#a10684">violine</text><text x="40" y="28020" fill="#40826d">viride</text><text x="40" y="28090" fill="#6c0277">zinzolin</text><text x="40" y="28160" fill="#000000">ébène</text><text x="40" y="28230" fill="#ed0000">écarlate</text><text x="40" y="28300" fill="#fefee0">écru</text><text x="40" y="28370" fill="#01d758">émeraude</text><text x="40" y="28440" fill="#ededed">étain</text><text x="40" y="28510" fill="#bababa">étain oxydé</text>
</svg>